<svg width="186" id="ban_log" height="29" viewBox="0 0 186 29" fill="none" xmlns="http://www.w3.org/2000/svg">
<path d="M169.607 16.7647L165.22 21.3464V28.496H160.094V0.401367H165.22V14.8011L178.825 0.401367H184.543L173.008 12.9886L185.282 28.496H179.268L169.607 16.7647Z" fill="#122223"/>
<path d="M149.4 28.496L143.781 20.2891C143.535 20.3395 143.19 20.3395 142.697 20.3395H136.486V28.5463H131.359V0.401367H142.697C145.063 0.401367 147.133 0.804157 148.907 1.60974C150.682 2.41532 152.013 3.57334 152.949 5.0838C153.886 6.59426 154.379 8.35647 154.379 10.4208C154.379 12.5354 153.886 14.348 152.851 15.8584C151.865 17.3689 150.386 18.5269 148.513 19.2822L154.823 28.496H149.4ZM147.527 6.29217C146.394 5.33554 144.668 4.83206 142.45 4.83206H136.486V16.0095H142.45C144.668 16.0095 146.344 15.506 147.527 14.5494C148.661 13.5927 149.252 12.183 149.252 10.4208C149.252 8.60821 148.71 7.2488 147.527 6.29217Z" fill="#122223"/>
<path d="M103.558 27.0373C101.291 25.7786 99.5165 24.0667 98.2349 21.8514C96.9533 19.636 96.3125 17.1689 96.3125 14.4501C96.3125 11.7313 96.9533 9.26417 98.2349 7.04882C99.5165 4.83348 101.291 3.12162 103.558 1.8629C105.826 0.604184 108.34 0 111.149 0C113.959 0 116.473 0.604184 118.741 1.8629C121.008 3.12162 122.782 4.83348 124.064 6.99848C125.346 9.21382 125.986 11.6809 125.986 14.3997C125.986 17.1689 125.346 19.636 124.064 21.801C122.782 24.0164 121.008 25.7282 118.741 26.9366C116.473 28.1953 113.959 28.7995 111.149 28.7995C108.34 28.7995 105.826 28.296 103.558 27.0373ZM116.128 23.0597C117.607 22.2038 118.74 21.0458 119.578 19.5353C120.416 18.0249 120.811 16.313 120.811 14.4501C120.811 12.5872 120.416 10.8753 119.578 9.36487C118.74 7.85441 117.607 6.69638 116.128 5.84046C114.649 4.98453 113.023 4.58174 111.199 4.58174C109.375 4.58174 107.699 4.98453 106.27 5.84046C104.791 6.69638 103.657 7.85441 102.819 9.36487C101.981 10.8753 101.587 12.5872 101.587 14.4501C101.587 16.313 101.981 18.0249 102.819 19.5353C103.657 21.0458 104.791 22.2038 106.27 23.0597C107.748 23.9157 109.375 24.3184 111.199 24.3184C113.023 24.3184 114.649 23.9157 116.128 23.0597Z" fill="#122223"/>
<path d="M75.5639 27.0362C73.3457 25.7775 71.5712 24.0656 70.2896 21.9006C69.008 19.6853 68.3672 17.2182 68.3672 14.4994C68.3672 11.7805 69.008 9.26308 70.2896 7.09809C71.5712 4.88274 73.3457 3.17088 75.5639 1.96251C77.782 0.703795 80.2959 0.0996094 83.1056 0.0996094C85.373 0.0996094 87.394 0.5024 89.2671 1.30798C91.1402 2.11356 92.7176 3.27158 93.9992 4.78204L90.6966 7.95402C88.7249 5.73867 86.2603 4.68135 83.352 4.68135C81.4789 4.68135 79.7537 5.08414 78.2749 5.94007C76.7962 6.79599 75.6132 7.95402 74.7752 9.46448C73.9372 10.9749 73.5429 12.6868 73.5429 14.5497C73.5429 16.4126 73.9372 18.1245 74.7752 19.6349C75.6132 21.1454 76.7962 22.3034 78.2749 23.1593C79.7537 24.0153 81.4789 24.4181 83.352 24.4181C86.2603 24.4181 88.7249 23.3104 90.6966 21.095L93.9992 24.3174C92.7176 25.8278 91.1402 26.9858 89.2671 27.7914C87.394 28.597 85.3238 28.9998 83.0563 28.9998C80.2959 28.8991 77.782 28.2949 75.5639 27.0362Z" fill="#122223"/>
<path d="M42.535 27.0373C40.2676 25.7786 38.4931 24.0667 37.2115 21.8514C35.9299 19.636 35.2891 17.1689 35.2891 14.4501C35.2891 11.7313 35.9299 9.26417 37.2115 7.04883C38.4931 4.83348 40.2676 3.12162 42.535 1.8629C44.8025 0.604185 47.3164 0 50.126 0C52.9357 0 55.4496 0.604185 57.7171 1.8629C59.9845 3.12162 61.759 4.83348 63.0406 6.99848C64.3222 9.21382 64.963 11.6809 64.963 14.3997C64.963 17.1689 64.3222 19.636 63.0406 21.801C61.759 24.0164 59.9845 25.7282 57.7171 26.9366C55.4496 28.1953 52.9357 28.7995 50.126 28.7995C47.3164 28.9002 44.8025 28.296 42.535 27.0373ZM55.0553 23.0597C56.534 22.2038 57.6678 21.0458 58.5057 19.5353C59.3437 18.0249 59.738 16.313 59.738 14.4501C59.738 12.5872 59.3437 10.8753 58.5057 9.36487C57.6678 7.85441 56.534 6.69638 55.0553 5.84046C53.5765 4.98453 51.9499 4.58174 50.126 4.58174C48.3022 4.58174 46.6263 4.98453 45.1968 5.84046C43.718 6.69638 42.5843 7.85441 41.7464 9.36487C40.9084 10.8753 40.514 12.5872 40.514 14.4501C40.514 16.313 40.9084 18.0249 41.7464 19.5353C42.5843 21.0458 43.718 22.2038 45.1968 23.0597C46.6756 23.9157 48.3022 24.3185 50.126 24.3185C51.9499 24.3185 53.5765 23.9157 55.0553 23.0597Z" fill="#122223"/>
<path d="M14.925 27.9938C12.9533 27.3897 11.3759 26.5841 10.2422 25.5268L12.0167 21.4485C13.1504 22.3548 14.5306 23.11 16.1573 23.6639C17.7839 24.2177 19.4599 24.5198 21.0865 24.5198C23.1075 24.5198 24.6355 24.1673 25.6707 23.5128C26.6565 22.8583 27.1987 21.952 27.1987 20.8443C27.1987 20.0387 26.903 19.3842 26.3608 18.8807C25.8186 18.3772 25.0792 17.9744 24.2412 17.6724C23.3539 17.3703 22.2202 17.0682 20.6922 16.6654C18.5726 16.1619 16.8966 15.6584 15.615 15.1549C14.3334 14.6514 13.1997 13.8459 12.2632 12.7885C11.3266 11.6809 10.883 10.2207 10.883 8.40819C10.883 6.84737 11.2773 5.43761 12.1153 4.17889C12.9533 2.92017 14.1856 1.9132 15.8615 1.15796C17.5374 0.402734 19.5584 0.050293 21.9738 0.050293C23.6497 0.050293 25.2763 0.251688 26.903 0.704826C28.5296 1.15797 29.9098 1.76215 31.0928 2.56773L29.4662 6.64598C28.2832 5.9411 27.0016 5.38726 25.6707 4.98447C24.3398 4.63203 23.1075 4.43063 21.8752 4.43063C19.8542 4.43063 18.3754 4.78308 17.3896 5.48796C16.4037 6.19284 15.9108 7.09912 15.9108 8.25714C15.9108 9.06272 16.2066 9.71725 16.7488 10.2207C17.291 10.7242 18.0304 11.127 18.8683 11.4291C19.7556 11.7312 20.8893 12.0333 22.4174 12.4361C24.4384 12.9396 26.1143 13.4431 27.4452 13.9465C28.7761 14.45 29.8605 15.2556 30.7971 16.3129C31.7336 17.3703 32.1773 18.8304 32.1773 20.6429C32.1773 22.2037 31.7829 23.6135 30.945 24.8722C30.107 26.1309 28.8747 27.1379 27.1987 27.8932C25.5228 28.5477 23.4525 28.9001 21.0865 28.9001C18.9669 28.9001 16.8966 28.598 14.925 27.9938Z" fill="#122223"/>
<path d="M5.1264 0.401367H0V28.496H5.1264V0.401367Z" fill="#122223"/>
</svg>
