<svg width="45" height="60" viewBox="0 0 45 60" fill="none" xmlns="http://www.w3.org/2000/svg">
<g clip-path="url(#clip0_1421_1122)">
<path d="M45 22.6471C45 42.2353 22.5 60 22.5 60C22.5 60 0 40.5882 0 22.6471C0 10.1324 10.0666 0 22.5 0C34.9334 0 45 10.1324 45 22.6471Z" fill="#122223"/>
<path d="M22.5018 37.6457C30.813 37.6457 37.5505 30.8641 37.5505 22.4986C37.5505 14.1331 30.813 7.35156 22.5018 7.35156C14.1907 7.35156 7.45312 14.1331 7.45312 22.4986C7.45312 30.8641 14.1907 37.6457 22.5018 37.6457Z" fill="white"/>
<path d="M22.5608 32.3975L22.1876 32.1923C21.6136 31.8992 18.7148 30.2868 18.1982 28.4985C18.0547 27.9708 18.1121 27.4431 18.3704 26.974C18.6287 26.5343 18.5426 26.2997 18.5139 26.2118C18.4278 25.8893 18.0547 25.6255 17.9112 25.5668C17.7677 25.5082 16.4761 24.8339 16.0743 23.5147C15.8447 22.8111 15.9308 22.0489 16.3326 21.3453L16.3613 21.2867L16.39 21.228C16.7918 20.7003 16.7631 20.4951 16.3326 19.8208C15.5577 18.8241 15.3281 17.8567 15.6151 17.0065C16.0743 15.6579 17.7103 15.2475 17.8825 15.1889C18.1408 15.1302 18.7722 14.8664 18.8009 14.5732C18.7435 13.166 19.0879 12.052 19.8054 11.2898C20.6952 10.3224 21.9293 10.1758 22.5608 10.1758C23.7662 10.1758 24.7133 10.5276 25.3448 11.2312C26.0623 11.9934 26.378 13.1367 26.3206 14.6025C26.3206 14.8957 26.952 15.1596 27.239 15.2182C27.44 15.2768 29.0472 15.6872 29.5064 17.0358C29.7935 17.886 29.5638 18.8534 28.7889 19.8502C28.3584 20.5244 28.3297 20.7003 28.7315 21.2573L28.7602 21.316L28.7889 21.3746C29.162 22.0782 29.2768 22.8404 29.0472 23.544C28.6454 24.8339 27.3539 25.5082 27.2103 25.5962C27.0668 25.6548 26.7224 25.9186 26.6076 26.2411C26.5789 26.3291 26.5215 26.5636 26.7511 27.0033C27.0094 27.4724 27.0668 28.0001 26.9233 28.5278C26.4067 30.2868 23.5079 31.8698 22.9339 32.1923L22.5608 32.3975ZM17.739 22.1955C17.5381 22.5766 17.5955 22.8404 17.6242 23.0163C17.7964 23.5733 18.4565 23.9838 18.6287 24.0717C18.7435 24.1303 19.748 24.6287 20.0638 25.7134C20.2073 26.1825 20.2647 26.9154 19.7767 27.7949C19.748 27.8242 19.7193 27.8828 19.7767 28.0001C19.9777 28.733 21.4414 29.8177 22.5895 30.492C23.7375 29.8177 25.1439 28.7623 25.3735 28.0001C25.4022 27.8535 25.3735 27.8242 25.3735 27.7656C24.8856 26.8861 24.943 26.1532 25.0865 25.6841C25.4022 24.5994 26.4067 24.101 26.5215 24.0424C26.7511 23.9251 27.3539 23.5147 27.5261 22.987C27.5835 22.8404 27.6122 22.5766 27.4113 22.1662C26.3206 20.671 27.0381 19.557 27.4687 18.8827L27.5261 18.8241C27.9279 18.2964 28.1001 17.8567 28.014 17.5635C27.8705 17.1531 27.1529 16.8892 26.9233 16.8306C26.1197 16.6547 24.742 15.9804 24.742 14.5732V14.5439C24.7995 13.5472 24.5985 12.8142 24.2254 12.4038C23.881 12.052 23.3644 11.8761 22.6182 11.8761C22.245 11.8761 21.5275 11.9641 21.0396 12.4625C20.6378 12.9022 20.4369 13.6058 20.4943 14.5439V14.5732C20.523 15.9804 19.1453 16.6547 18.313 16.8306C17.9973 16.9185 17.3658 17.1824 17.2223 17.5635C17.1362 17.8567 17.3084 18.2964 17.7103 18.8241L17.7677 18.8827C18.1121 19.5863 18.8296 20.7003 17.739 22.1955Z" fill="#122223"/>
<path d="M23.3586 10.3516H21.7227V35.2704H23.3586V10.3516Z" fill="#122223"/>
</g>
<defs>
<clipPath id="clip0_1421_1122">
<rect width="45" height="60" fill="white"/>
</clipPath>
</defs>
</svg>
