<svg width="164" height="76" viewBox="0 0 164 76" fill="none" xmlns="http://www.w3.org/2000/svg">
<g id="Group 3920">
<path id="Vector" d="M148 0H16C7.16344 0 0 7.16344 0 16V60C0 68.8366 7.16345 76 16 76H148C156.837 76 164 68.8366 164 60V16C164 7.16344 156.837 0 148 0Z" fill="#005BFF"/>
<g id="Mask group">
<mask id="mask0_2804_3552" style="mask-type:alpha" maskUnits="userSpaceOnUse" x="0" y="0" width="164" height="76">
<g id="Group">
<path id="Vector_2" fill-rule="evenodd" clip-rule="evenodd" d="M0 16C0 7.16344 7.16344 0 16 0H148C156.837 0 164 7.16344 164 16V60C164 68.8366 156.837 76 148 76H16C7.16345 76 0 68.8366 0 60V16Z" fill="white"/>
</g>
</mask>
<g mask="url(#mask0_2804_3552)">
<path id="Vector_3" fill-rule="evenodd" clip-rule="evenodd" d="M81.381 37.1667L80.0276 31.9239L88.9598 25.9326L99.643 26.668L101.202 31.7923L149.897 84.1757L73.7344 107.255L81.381 37.1667Z" fill="#F91155"/>
<path id="Vector_4" fill-rule="evenodd" clip-rule="evenodd" d="M45.876 52.5297C42.4196 53.9586 38.5582 51.6528 38.0251 47.8419C37.6616 45.2443 39.0892 42.6857 41.4454 41.7119C44.902 40.283 48.7633 42.5888 49.2966 46.3992C49.6598 48.9973 48.2322 51.5559 45.876 52.5297ZM41.8871 36.3052C35.2069 37.3848 31.2823 44.4184 33.7207 50.9418C35.5249 55.7699 40.4909 58.7347 45.4342 57.9359C52.1146 56.8568 56.0391 49.8232 53.6009 43.2993C51.7965 38.4717 46.8304 35.5067 41.8871 36.3052Z" fill="white"/>
<path id="Vector_5" fill-rule="evenodd" clip-rule="evenodd" d="M56.8285 32.5061C55.3269 32.9085 54.5163 34.6133 55.2518 36.1114C55.7913 37.2102 57.0739 37.7153 58.2384 37.4032L65.0004 35.5912L58.2561 52.5132C58.0349 53.0684 58.5379 53.6461 59.1096 53.4931L75.6162 49.0699C76.7807 48.7579 77.6388 47.6787 77.5567 46.4576C77.4447 44.7925 75.8903 43.7217 74.3888 44.1243L66.1501 46.3317L72.8892 29.4223C73.1126 28.8618 72.6049 28.2789 72.028 28.4335L56.8285 32.5061Z" fill="white"/>
<path id="Vector_6" fill-rule="evenodd" clip-rule="evenodd" d="M122.744 14.7373C121.678 15.2805 121.186 16.5512 121.498 17.7178L123.694 25.911L107.672 18.8818C107.113 18.6368 106.524 19.149 106.682 19.7414L111.215 36.6571C111.528 37.8234 112.589 38.6782 113.784 38.6153C115.452 38.5275 116.518 36.9499 116.107 35.4165L113.893 27.1535L129.915 34.1826C130.474 34.4276 131.063 33.9155 130.904 33.3232L126.355 16.346C125.944 14.8126 124.232 13.9794 122.744 14.7373Z" fill="white"/>
<path id="Vector_7" fill-rule="evenodd" clip-rule="evenodd" d="M88.3336 23.5126C80.3089 25.6629 75.0736 32.1463 76.6404 37.994C78.2072 43.8414 85.9828 46.8388 94.0077 44.6884C102.032 42.538 107.268 36.0546 105.701 30.2072C104.134 24.3595 96.3585 21.3624 88.3336 23.5126ZM89.6577 28.4544C95.2017 26.9689 100.143 28.8398 100.857 31.505C101.571 34.1702 98.2277 38.261 92.6836 39.7464C87.1396 41.2323 82.198 39.3613 81.484 36.6961C80.7698 34.0308 84.1136 29.94 89.6577 28.4544Z" fill="white"/>
</g>
</g>
</g>
</svg>
