<svg xmlns="http://www.w3.org/2000/svg" xmlns:xlink="http://www.w3.org/1999/xlink"><defs><clipPath id="a"><path d="M0 0h42v57H0z"/></clipPath></defs><symbol id="arr-right" viewBox="0 0 12 12"><path d="m12 6-1.414-1.414-5.657 5.657 1.414 1.414z"/><path d="M10.586 7.414 12 6 6.343.343 4.93 1.757z"/></symbol><symbol id="arrow-down" viewBox="0 0 24 14"><path d="M10.94 13.06a1.5 1.5 0 0 0 2.12 0l9.547-9.545a1.5 1.5 0 1 0-2.122-2.122L12 9.88 3.515 1.393a1.5 1.5 0 1 0-2.122 2.122l9.546 9.546ZM10.5 11v1h3v-1h-3Z"/></symbol><symbol id="arrow-order" viewBox="0 0 14 11"><path d="m1 7.66 9.66 2.587L13.246.588"/></symbol><symbol id="arrow-to-bottom" viewBox="0 0 16 41"><path fill-rule="evenodd" clip-rule="evenodd" d="m15.07 34.343-6.364 6.364a1 1 0 0 1-1.414 0L.928 34.343a1 1 0 1 1 1.414-1.414L7 37.586V0h2v37.586l4.657-4.657a1 1 0 0 1 1.414 1.414Z"/></symbol><symbol id="arrow-to-right" viewBox="0 0 21 12"><path fill-rule="evenodd" clip-rule="evenodd" d="M15.757.697 20.53 5.47a.75.75 0 0 1 0 1.06l-4.773 4.773a.75.75 0 0 1-1.06-1.06l3.492-3.493H0v-1.5h18.19l-3.493-3.493a.75.75 0 1 1 1.06-1.06Z"/></symbol><symbol id="close-modal" viewBox="0 0 21 20"><path d="M.002 18.332 18.335-.001l1.667 1.666L1.669 20z"/><path d="M18.334 20 .001 1.667 1.667 0l18.334 18.333z"/></symbol><symbol id="file" viewBox="0 0 42 57"><g clip-path="url(#a)"><path d="M41.765 13.06 29.412.122 28.942 0H.587L0 .61v55.78l.588.61h40.824l.588-.61V13.426l-.235-.366ZM29.529 2.075l10.353 10.74H29.53V2.076ZM1.176 55.779V1.221h27.177v12.205l.588.61h11.765v41.621H1.176v.122Z"/><path d="M32.941 20.871H9.176v1.22H32.94v-1.22ZM32.941 30.27H9.176v1.22H32.94v-1.22ZM21.176 39.79h-12v1.22h12v-1.22Z"/></g></symbol><symbol id="logo" viewBox="0 0 202 44"><path d="M55.538 10.805h-4.167v22.839h4.167v-22.84ZM63.514 33.236c-1.603-.491-2.885-1.146-3.807-2.006l1.443-3.315c.921.737 2.043 1.35 3.366 1.8 1.322.451 2.684.697 4.007.697 1.643 0 2.885-.287 3.726-.819.802-.532 1.243-1.269 1.243-2.17 0-.654-.24-1.186-.682-1.596-.44-.409-1.041-.736-1.723-.982-.721-.245-1.643-.491-2.885-.819-1.723-.409-3.085-.818-4.127-1.227a7.102 7.102 0 0 1-2.725-1.924c-.761-.9-1.122-2.088-1.122-3.561 0-1.269.32-2.415 1.002-3.438.681-1.023 1.683-1.842 3.045-2.456 1.363-.614 3.005-.9 4.969-.9 1.362 0 2.685.163 4.007.532 1.322.368 2.444.86 3.406 1.514l-1.322 3.315a13.893 13.893 0 0 0-3.086-1.35c-1.081-.287-2.083-.45-3.085-.45-1.643 0-2.845.286-3.647.859-.801.573-1.202 1.31-1.202 2.251 0 .655.24 1.187.681 1.596.441.41 1.042.737 1.724.983.72.245 1.642.49 2.885.818 1.643.41 3.005.819 4.087 1.228 1.082.41 1.964 1.065 2.725 1.924.761.86 1.122 2.047 1.122 3.52 0 1.269-.32 2.415-1.002 3.438-.681 1.023-1.683 1.842-3.045 2.456-1.363.532-3.046.819-4.97.819-1.722 0-3.405-.246-5.008-.737ZM85.953 32.458c-1.843-1.023-3.286-2.415-4.328-4.216-1.042-1.8-1.563-3.806-1.563-6.017 0-2.21.521-4.215 1.563-6.016 1.042-1.801 2.485-3.193 4.328-4.216 1.843-1.023 3.887-1.514 6.171-1.514 2.284 0 4.328.49 6.171 1.514 1.843 1.023 3.286 2.415 4.328 4.175 1.042 1.8 1.562 3.806 1.562 6.017 0 2.25-.52 4.256-1.562 6.016a10.74 10.74 0 0 1-4.328 4.175c-1.843 1.023-3.887 1.515-6.171 1.515-2.284.081-4.328-.41-6.171-1.433Zm10.178-3.233a7.338 7.338 0 0 0 2.805-2.866c.681-1.228 1.002-2.62 1.002-4.134 0-1.514-.32-2.906-1.002-4.134a7.337 7.337 0 0 0-2.805-2.865c-1.202-.695-2.524-1.023-4.007-1.023-1.483 0-2.845.328-4.007 1.023a7.337 7.337 0 0 0-2.805 2.865c-.681 1.228-1.002 2.62-1.002 4.134 0 1.515.32 2.906 1.002 4.134a7.338 7.338 0 0 0 2.805 2.866c1.202.695 2.524 1.023 4.007 1.023 1.483 0 2.805-.328 4.007-1.023ZM112.8 32.457c-1.804-1.023-3.246-2.415-4.288-4.175-1.042-1.8-1.563-3.806-1.563-6.016s.521-4.257 1.563-6.017a10.887 10.887 0 0 1 4.288-4.175c1.803-1.023 3.847-1.514 6.131-1.514 1.843 0 3.486.327 5.008.982a10.309 10.309 0 0 1 3.847 2.824l-2.684 2.579c-1.603-1.801-3.607-2.66-5.971-2.66-1.523 0-2.925.327-4.127 1.022-1.203.696-2.164 1.638-2.845 2.866-.682 1.228-1.002 2.62-1.002 4.134 0 1.514.32 2.906 1.002 4.134.681 1.227 1.642 2.169 2.845 2.865 1.202.695 2.604 1.023 4.127 1.023 2.364 0 4.368-.9 5.971-2.701l2.684 2.619a10.309 10.309 0 0 1-3.847 2.824c-1.522.655-3.205.983-5.048.983-2.244-.082-4.288-.574-6.091-1.597ZM135.562 32.458c-1.843-1.023-3.285-2.415-4.327-4.216-1.042-1.8-1.563-3.806-1.563-6.017 0-2.21.521-4.215 1.563-6.016 1.042-1.801 2.484-3.193 4.327-4.216 1.844-1.023 3.887-1.514 6.171-1.514 2.284 0 4.328.49 6.171 1.514 1.844 1.023 3.286 2.415 4.328 4.175 1.042 1.8 1.563 3.806 1.563 6.017 0 2.25-.521 4.256-1.563 6.016a10.733 10.733 0 0 1-4.328 4.175c-1.843 1.023-3.887 1.515-6.171 1.515-2.284 0-4.327-.41-6.171-1.433Zm10.219-3.233a7.344 7.344 0 0 0 2.805-2.866c.681-1.228 1.001-2.62 1.001-4.134 0-1.514-.32-2.906-1.001-4.134a7.344 7.344 0 0 0-2.805-2.865c-1.203-.695-2.525-1.023-4.008-1.023-1.482 0-2.845.328-4.007 1.023a7.344 7.344 0 0 0-2.805 2.865c-.681 1.228-1.001 2.62-1.001 4.134 0 1.515.32 2.906 1.001 4.134a7.344 7.344 0 0 0 2.805 2.866c1.202.695 2.525 1.023 4.007 1.023 1.483 0 2.805-.328 4.008-1.023ZM172.826 33.644l-4.568-6.672c-.2.041-.481.041-.881.041h-5.049v6.672h-4.168v-22.88h9.217c1.923 0 3.606.327 5.049.982 1.442.655 2.524 1.596 3.285 2.824.762 1.228 1.163 2.66 1.163 4.339 0 1.719-.401 3.192-1.243 4.42-.801 1.228-2.003 2.17-3.526 2.784l5.129 7.49h-4.408Zm-1.522-18.05c-.922-.778-2.325-1.188-4.128-1.188h-4.848v9.087h4.848c1.803 0 3.166-.41 4.128-1.187.921-.778 1.402-1.924 1.402-3.356 0-1.474-.441-2.579-1.402-3.356ZM189.257 24.107l-3.566 3.725v5.812h-4.168v-22.84h4.168v11.707l11.06-11.706h4.648l-9.377 10.232L202 33.644h-4.889l-7.854-9.537ZM21.558 44C9.658 44 0 34.136 0 22.02 0 9.864 9.657 0 21.558 0 33.46 0 43.117 9.864 43.117 22.02 43.077 34.136 33.42 44 21.558 44Zm0-41.667c-10.659 0-19.274 8.8-19.274 19.688 0 10.846 8.655 19.687 19.274 19.687 10.62 0 19.275-8.841 19.275-19.688-.04-10.887-8.656-19.687-19.275-19.687Z"/><path d="m21.559 35.486-.521-.286c-.802-.41-4.849-2.66-5.57-5.158-.2-.736-.12-1.473.24-2.128.36-.614.24-.941.2-1.064-.12-.45-.64-.819-.84-.9-.201-.082-2.005-1.024-2.566-2.866-.32-.982-.2-2.046.361-3.029l.08-.163c.561-.737.521-1.023-.08-1.965-1.082-1.392-1.402-2.742-1.002-3.93.641-1.882 2.926-2.455 3.166-2.537.36-.082 1.242-.45 1.282-.86-.08-1.964.401-3.52 1.403-4.584 1.242-1.35 2.965-1.555 3.847-1.555 1.683 0 3.005.491 3.887 1.474 1.001 1.064 1.442 2.66 1.362 4.707 0 .409.882.777 1.282.86.28.08 2.525.654 3.166 2.537.4 1.187.08 2.537-1.002 3.93-.6.94-.641 1.186-.08 1.964l.08.163c.521.983.681 2.047.36 3.03-.56 1.8-2.363 2.742-2.564 2.864-.2.082-.681.45-.841.9-.04.124-.12.451.2 1.065.36.655.44 1.392.24 2.128-.72 2.456-4.768 4.666-5.57 5.117l-.52.286Zm-6.732-14.243c-.28.532-.2.9-.16 1.146.24.777 1.161 1.35 1.402 1.473.16.082 1.563.778 2.003 2.292.2.655.28 1.678-.4 2.906-.04.041-.08.123 0 .287.28 1.023 2.324 2.537 3.927 3.479 1.603-.942 3.566-2.415 3.887-3.48.04-.204 0-.245 0-.327-.682-1.228-.601-2.25-.401-2.906.44-1.514 1.843-2.21 2.003-2.292.321-.164 1.163-.737 1.403-1.473.08-.205.12-.573-.16-1.146-1.523-2.088-.521-3.643.08-4.585l.08-.082c.561-.736.801-1.35.681-1.76-.2-.572-1.202-.94-1.523-1.023-1.122-.245-3.045-1.187-3.045-3.151v-.041c.08-1.392-.2-2.415-.721-2.988-.481-.491-1.202-.737-2.244-.737-.521 0-1.523.123-2.204.819-.561.614-.842 1.596-.761 2.906v.04c.04 1.965-1.884 2.907-3.046 3.152-.44.123-1.322.491-1.523 1.023-.12.41.12 1.024.682 1.76l.08.082c.48.983 1.482 2.538-.04 4.625Z"/><path d="M22.679 4.707h-2.284v34.79h2.284V4.708Z"/></symbol><symbol id="long-arrow-to-right" viewBox="0 0 43 16"><path fill-rule="evenodd" clip-rule="evenodd" d="m36.343.929 6.364 6.364a1 1 0 0 1 0 1.414l-6.364 6.364a1 1 0 0 1-1.414-1.414L39.586 9H0V7h39.586l-4.657-4.657A1 1 0 0 1 36.343.93Z"/></symbol><symbol id="longest-arrow-to-right" viewBox="0 0 104 16"><path fill-rule="evenodd" clip-rule="evenodd" d="m97.253.93 6.364 6.363c.39.39.39 1.024 0 1.414l-6.364 6.364a1 1 0 0 1-1.415-1.414L100.495 9H.637V7h99.858l-4.657-4.657A1 1 0 0 1 97.253.93Z"/></symbol><symbol id="ozon" viewBox="0 0 44 43"><path fill-rule="evenodd" clip-rule="evenodd" d="M29.902 24.473a6.52 6.52 0 0 1-3.802 1.172c-2.002.028-3.485-.387-4.754-1.45-1.76-1.472-1.857-3.576-.233-5.175 2.214-2.18 6.933-2.249 9.215-.135 1.86 1.721 1.675 4.145-.426 5.587Zm-.843-4.031c-.891-.811-1.972-1.057-2.792-1.047-1.689-.007-2.748.316-3.506.963-.798.678-.837 1.44-.11 2.169 1.421 1.425 4.961 1.438 6.426.023.721-.696.721-1.437-.018-2.108Z"/><path d="M15.364 20.01c.07-.1.146-.21.235-.335l-.554.002c-.432.001-.817.003-1.202-.006l-.054-.001c-.245-.004-.496-.009-.728-.07-.562-.148-.926-.479-.874-1.117.051-.64.457-.94 1.043-.948 1.919-.024 3.84-.025 5.76-.002.625.008.731.324.316.873-.665.88-1.337 1.756-2.008 2.631l-.99 1.292c-.146.191-.289.384-.486.649l-.002.004-.26.35c.25 0 .48-.002.7-.003.473-.003.887-.005 1.302.008.415.012.842.028 1.243.123.56.133.83.552.765 1.113-.065.568-.446.895-1.014.9-2.131.017-4.262.021-6.392 0-.687-.007-.645-.37-.308-.813 1.061-1.392 2.118-2.788 3.174-4.184.108-.142.21-.288.334-.466Z"/><path fill-rule="evenodd" clip-rule="evenodd" d="M43.76 0H.762v42.998H43.76V0ZM9.12 25.058c-1.93 1.167-3.893.7-5.896-1.4a8.14 8.14 0 0 0-.259.013c0 .237-.002.474-.004.71-.004.51-.009 1.02.007 1.53.149 4.67 2.47 7.967 6.609 10.037 3.59 1.794 7.437 1.965 11.318 1.395 3.819-.558 7.346-1.968 10.586-4.057 3.109-2.003 5.715-4.504 7.692-7.629l.01-.015c.187-.293.358-.56-.029-.855-.731-.56-1.46-1.124-2.188-1.688a535.09 535.09 0 0 0-1.794-1.387c-.027-.02-.076-.013-.141-.004-.037.006-.078.012-.122.014 0 .276 0 .551.002.824.002.62.004 1.235-.005 1.848-.011.607-.354 1.002-.95 1.058-.597.056-1.009-.258-1.123-.865a4.827 4.827 0 0 1-.075-.853 661.99 661.99 0 0 1-.004-4.108v-.588l-.001-.19c-.002-.198-.005-.396.016-.592.075-.75.34-.882.949-.458.281.194.547.412.813.63.14.114.28.229.422.34.689.54 1.379 1.078 2.107 1.646l.021.017 1.334 1.042c0-.33-.001-.64-.003-.936-.003-.65-.005-1.235.008-1.82.014-.64.271-1.132.992-1.18.726-.05 1.023.428 1.137 1.048.037.206.035.42.032.631v.15c.002.83.002 1.658.001 2.487v.83c.414-.89.692-1.806.902-2.737 1.31-5.82-1.894-11.442-7.575-13.456-4.024-1.427-8.083-1.411-12.17-.441-4.646 1.103-8.711 3.321-12.232 6.502A21.426 21.426 0 0 0 5.47 17.48c3.453-.578 4.857 1.092 5.47 2.756.625 1.701-.187 3.835-1.82 4.823Zm-2.258-1.454c-1.148-.002-2.036-.905-2.038-2.08-.001-1.233.867-2.126 2.07-2.13 1.146-.003 2.176 1.02 2.138 2.12-.038 1.195-.971 2.091-2.17 2.09Z"/></symbol><symbol id="ps-logo" viewBox="0 0 123 25"><path d="M28.88 5.998h-3.024c-.572 0-.94.327-.94.899v9.807c0 .531.327.858.858.858.531 0 .858-.327.858-.858v-3.473h2.37c2.289 0 3.515-1.88 3.515-3.678.04-1.961-1.553-3.555-3.637-3.555Zm1.92 3.596c0 .817-.613 1.92-1.757 1.92h-2.37v-3.8h2.33c1.184.041 1.797.981 1.797 1.88ZM40.811 15.887h-4.413v-9.03c0-.532-.327-.859-.858-.859-.532 0-.858.327-.858.858v9.562c0 .736.367 1.144 1.062 1.144h5.108c.531 0 .858-.327.858-.858-.04-.49-.368-.817-.899-.817ZM62.144 14.948c-.245 0-.409.082-.613.245-.531.531-1.594.94-2.534.94-2.37 0-3.596-2.166-3.596-4.331 0-2.044 1.104-4.21 3.555-4.21.818 0 1.962.287 2.534.859.163.163.49.286.695.286.49 0 .858-.409.858-.9 0-.285-.123-.571-.368-.775-1.021-.94-2.574-1.308-3.637-1.308-3.596 0-5.434 3.105-5.434 6.13 0 2.9 1.675 6.006 5.352 6.006 1.349 0 2.78-.49 3.678-1.308.205-.204.327-.449.327-.776.041-.531-.327-.858-.817-.858ZM71.663 15.887h-4.78v-3.433h3.922c.531 0 .858-.326.858-.817 0-.531-.327-.899-.858-.899h-3.923V7.755h4.659c.53 0 .858-.327.858-.858 0-.531-.327-.858-.858-.858h-5.435c-.572 0-.94.368-.94.98v9.603c0 .654.163.981.94.981h5.557c.613 0 .94-.327.94-.858 0-.245-.082-.858-.94-.858ZM80 11.391c-.245-.122-.49-.245-.694-.327l-.45-.245c-1.021-.531-1.96-1.021-1.96-1.675 0-.9.816-1.512 1.593-1.512h.04c1.022 0 1.758.409 2.248.776l.082.041c.204.123.409.286.654.286.45 0 .858-.408.858-.899 0-.408-.286-.694-.531-.94-.246-.163-1.472-1.062-3.065-1.062-2.166 0-3.719 1.39-3.719 3.392 0 1.716 1.717 2.615 3.31 3.391l.736.368c1.062.45 1.675.817 1.716 1.716.04 1.185-2.207 2.125-4.331.858-.246-.122-.49-.245-.695-.245-.531 0-.817.327-.817.817 0 .246.081.613.572.9.817.53 1.757.776 2.737.776 2.82 0 4.373-1.144 4.373-3.228-.041-1.92-1.43-2.616-2.656-3.188ZM92.541 6.08h-7.355c-.572 0-.899.327-.899.858 0 .531.327.858.9.858h2.778v8.95c0 .571.327.94.899.94.531 0 .858-.369.858-.94v-8.95h2.82c.53 0 .898-.327.898-.858 0-.531-.326-.858-.899-.858ZM102.678 16.417l-3.473-9.44c-.204-.572-.613-.858-1.144-.858-.531 0-.94.327-1.144.858l-3.35 9.48c-.042.123-.083.246-.083.41 0 .49.327.816.777.816.245 0 .735-.081.98-.776l.859-2.411h3.963l1.063 2.615c.122.368.449.572.817.572.49 0 .817-.327.817-.817 0-.122-.041-.286-.082-.45ZM99.45 12.78h-2.86l1.43-3.923 1.43 3.923ZM110.198 12.904c1.471-.572 2.125-2.084 2.125-3.269 0-1.716-1.307-3.555-3.678-3.555h-2.778c-.817 0-1.144.409-1.144 1.308v9.276c0 .898.613.98.858.98.531 0 .858-.367.858-.98v-3.392h1.961l2.289 3.923c.122.204.327.49.776.49.49 0 .776-.327.776-.817 0-.204-.04-.45-.163-.695l-1.88-3.269Zm.368-3.228c0 .736-.49 1.88-1.798 1.88h-2.329v-3.76h2.329c1.308 0 1.798 1.144 1.798 1.88ZM122.004 6.08h-7.355c-.572 0-.899.327-.899.858 0 .531.327.858.899.858h2.819v8.95c0 .571.327.94.899.94.532 0 .859-.369.859-.94v-8.95h2.819c.531 0 .899-.327.899-.858-.041-.531-.368-.858-.94-.858ZM52.378 16.378l-3.474-9.44c-.204-.572-.613-.858-1.144-.858-.531 0-.94.327-1.144.858l-3.35 9.48c-.041.123-.082.245-.082.409 0 .49.327.817.776.817.245 0 .736-.081.98-.776l.859-2.411h3.964l1.062 2.615c.122.368.45.572.817.572.49 0 .817-.327.817-.817 0-.123 0-.286-.081-.45ZM49.19 12.74h-2.86l1.43-3.923 1.43 3.923ZM17.233 3.141c-1.88-1.92-4.372-2.983-6.987-2.983h-.082C4.77.158.316 4.571.234 10.005V23.818c0 .285.123.571.327.735.205.163.45.286.695.286.286 0 .531-.123.735-.286l5.067-4.985c.818.163 2.248.45 3.065.45h.082c5.353 0 9.889-4.536 9.93-9.889 0-2.574-1.022-5.067-2.902-6.987Zm-7.028 15.363h-.082c-.654 0-1.961-.245-2.983-.49-.327-.082-.694.04-.94.286l-4.454 4.331V10.046C1.828 5.43 5.587 1.67 10.164 1.67h.04c2.248.04 4.373.94 5.967 2.533a8.349 8.349 0 0 1 2.452 5.925c-.082 4.576-3.923 8.376-8.418 8.376Z"/><path d="M12.29 6.246a.898.898 0 0 0-.572-.082c-.204.041-.368.205-.45.368-.082.164-.122.409-.082.572.041.205.205.368.368.45a2.843 2.843 0 0 1 1.512 2.533 2.912 2.912 0 0 1-2.901 2.902 2.913 2.913 0 0 1-2.901-2.902c0-.98.49-1.92 1.348-2.451.368-.246.45-.695.245-1.063a.813.813 0 0 0-.49-.327.899.899 0 0 0-.572.082 4.386 4.386 0 0 0-2.084 3.76 4.464 4.464 0 0 0 4.454 4.453 4.464 4.464 0 0 0 4.454-4.454c0-1.593-.899-3.064-2.33-3.84Z"/><path d="M10.083 5.145a.776.776 0 0 0-.776.776V9.19c0 .409.327.776.776.776.45 0 .776-.327.776-.776V5.92a.804.804 0 0 0-.776-.775Z"/></symbol><symbol id="short-arrow-to-right" viewBox="0 0 36 36"><rect width="2.869" height="25.101" rx="1.434" transform="scale(-1 1) rotate(-45 3.728 52.456)"/><rect width="2.869" height="25.101" rx="1.434" transform="scale(1 -1) rotate(45 41.16 30.99)"/></symbol><symbol id="tel" viewBox="0 0 19 19"><path d="M17.809 19C7.679 19.014-.011 11.234 0 1.191A1.19 1.19 0 0 1 1.188 0h3.135a1.19 1.19 0 0 1 1.174 1.014 14.745 14.745 0 0 0 1.205 4.034l.123.264a.84.84 0 0 1-.274 1.035c-.97.694-1.341 2.089-.585 3.177a14.05 14.05 0 0 0 3.51 3.511c1.09.755 2.484.385 3.177-.585a.84.84 0 0 1 1.037-.275l.262.121c1.28.594 2.639 1 4.034 1.207A1.19 1.19 0 0 1 19 14.679v3.133A1.189 1.189 0 0 1 17.811 19h-.002Z"/></symbol><symbol id="vk" viewBox="0 0 43 43"><path fill-rule="evenodd" clip-rule="evenodd" d="M42.998 0H0v42.998h42.998V0ZM23.004 32.414c-11.527 0-18.101-7.45-18.375-19.846h5.774c.19 9.099 4.446 12.952 7.818 13.747V12.568h5.436v7.847c3.33-.338 6.828-3.913 8.008-7.847H37.1c-.906 4.847-4.699 8.423-7.396 9.893 2.697 1.192 7.017 4.311 8.661 9.953h-5.985c-1.285-3.775-4.488-6.695-8.724-7.092v7.092h-.653Z"/></symbol><symbol width="21" height="12" viewBox="0 0 21 12" fill="none" id="gold_arrow_right" xmlns="http://www.w3.org/2000/svg">
<path d="M20.5303 6.53033C20.8232 6.23744 20.8232 5.76256 20.5303 5.46967L15.7574 0.696699C15.4645 0.403806 14.9896 0.403806 14.6967 0.696699C14.4038 0.989593 14.4038 1.46447 14.6967 1.75736L18.9393 6L14.6967 10.2426C14.4038 10.5355 14.4038 11.0104 14.6967 11.3033C14.9896 11.5962 15.4645 11.5962 15.7574 11.3033L20.5303 6.53033ZM0 6.75H20V5.25H0V6.75Z" fill="#EFC99B"/>
</symbol><symbol width="76" height="76" viewBox="0 0 76 76" id="orange-cirkle-arrow" fill="none" xmlns="http://www.w3.org/2000/svg">
<circle cx="38" cy="38" r="38" fill="#EBA049"/>
<path d="M33.5654 47.1485C32.9298 46.6172 32.8452 45.6712 33.3764 45.0356L39.7894 37.3626C40.3206 36.727 41.2666 36.6424 41.9023 37.1736C42.5379 37.7049 42.6225 38.6509 42.0913 39.2865L35.6783 46.9595C35.1471 47.5951 34.2011 47.6797 33.5654 47.1485Z" fill="white"/>
<path d="M34.3468 28.8864C35.0245 28.4099 35.9601 28.573 36.4366 29.2507L42.1883 37.431C42.6648 38.1087 42.5017 39.0443 41.824 39.5208C41.1464 39.9973 40.2107 39.8342 39.7342 39.1565L33.9825 30.9762C33.506 30.2985 33.6691 29.3628 34.3468 28.8864Z" fill="white"/>
</symbol></svg>




