<svg width="199" height="548" viewBox="0 0 199 548" fill="none" xmlns="http://www.w3.org/2000/svg">
<path d="M119.492 234.111C178.695 287.784 210.361 370.728 191.494 437.486C182.076 470.811 160.052 500.196 122.403 520.008C84.7835 539.805 31.4857 550.081 -40.5261 545.03C-150.868 476.866 -218.058 429.327 -257.711 380.56C-297.294 331.88 -309.5 281.887 -309.5 208.5C-309.5 135.31 -283.215 83.6593 -238.792 50.2549C-194.3 16.798 -131.418 1.5 -58 1.5C-21.4726 1.5 1.9895 10.8292 18.1643 25.9021C34.3893 41.0216 43.4773 62.0931 50.8861 86.0064C53.6768 95.0136 56.2167 104.379 58.8144 113.957C59.6642 117.09 60.5202 120.246 61.3932 123.42C64.9293 136.277 68.7358 149.391 73.5095 162.309C83.0601 188.153 96.5024 213.269 119.492 234.111Z" stroke="#EFC99B" stroke-width="3"/>
<path d="M93.4417 240.167C143.951 285.982 170.94 356.761 154.859 413.693C146.834 442.105 128.067 467.16 95.9721 484.059C63.9063 500.942 18.4581 509.719 -42.9781 505.414C-137.173 447.194 -194.501 406.604 -228.327 364.982C-262.084 323.445 -272.5 280.792 -272.5 218.125C-272.5 155.656 -250.081 111.599 -212.211 83.1081C-174.272 54.5648 -120.633 41.5 -57.9682 41.5C-26.8176 41.5 -6.84299 49.4588 6.91736 62.2882C20.7279 75.1644 28.4744 93.1197 34.7982 113.541C37.1798 121.232 39.3471 129.228 41.565 137.409C42.2908 140.087 43.022 142.784 43.768 145.498C46.7878 156.483 50.0401 167.694 54.1195 178.739C62.2818 200.838 73.776 222.329 93.4417 240.167Z" stroke="#EFC99B" stroke-width="3"/>
<path d="M87.1963 241.661C135.603 285.507 161.461 353.237 146.053 407.705C138.365 434.886 120.387 458.856 89.6348 475.025C58.9116 491.178 15.3609 499.58 -43.5185 495.462C-133.81 439.733 -188.752 400.885 -221.17 361.052C-253.517 321.306 -263.5 280.492 -263.5 220.513C-263.5 160.731 -242.016 118.578 -205.732 91.3177C-169.377 64.0053 -117.972 51.5 -57.9074 51.5C-28.0564 51.5 -8.9248 59.1157 4.25165 71.3833C17.4781 83.6975 24.8999 100.872 30.9612 120.418C33.2438 127.779 35.321 135.431 37.447 143.262C38.1429 145.826 38.844 148.409 39.5593 151.007C42.4543 161.523 45.5726 172.257 49.4842 182.833C57.3109 203.993 68.3342 224.576 87.1963 241.661Z" stroke="#EFC99B" stroke-width="3"/>
<path d="M79.5626 243.454C125.4 284.936 149.875 349.008 135.291 400.52C128.015 426.223 111 448.892 81.8887 464.184C52.8066 479.461 11.5754 487.413 -44.1788 483.519C-129.698 430.78 -181.725 394.022 -212.421 356.338C-243.046 318.74 -252.5 280.133 -252.5 223.378C-252.5 166.822 -232.159 126.951 -197.811 101.169C-163.394 75.3338 -114.72 63.5 -57.8332 63.5C-29.5708 63.5 -11.4698 70.7038 0.993073 82.297C13.5057 93.9367 20.5309 110.174 26.2715 128.67C28.4331 135.635 30.4001 142.874 32.4138 150.286C33.0731 152.713 33.7374 155.158 34.4152 157.618C37.1576 167.57 40.1121 177.733 43.8186 187.745C51.2351 207.779 61.6828 227.272 79.5626 243.454Z" stroke="#EFC99B" stroke-width="3"/>
<path d="M72.6231 245.097C116.124 284.413 139.342 345.131 125.507 393.934C118.605 418.281 102.466 439.757 74.847 454.247C47.2568 468.721 8.13405 476.259 -44.7793 472.571C-125.961 422.573 -175.338 387.73 -204.468 352.016C-233.528 316.388 -242.5 279.804 -242.5 226.005C-242.5 172.404 -223.198 134.628 -190.612 110.199C-157.955 85.7183 -111.764 74.5 -57.7657 74.5C-30.9474 74.5 -13.783 81.3263 -1.96896 92.3016C9.89467 103.323 16.5592 118.701 22.0081 136.234C24.06 142.836 25.9269 149.699 27.8387 156.726C28.4645 159.027 29.0952 161.345 29.7388 163.677C32.3425 173.114 35.1481 182.752 38.6682 192.248C45.7118 211.25 55.6363 229.744 72.6231 245.097Z" stroke="#EFC99B" stroke-width="3"/>
<path d="M64.9895 246.889C105.921 283.843 127.756 340.902 114.745 386.749C108.255 409.618 93.079 429.793 67.1011 443.406C41.1519 457.005 4.34859 464.092 -45.4395 460.629C-121.849 413.62 -168.311 380.867 -195.72 347.301C-223.057 313.821 -231.5 279.445 -231.5 228.87C-231.5 178.494 -213.341 143.001 -182.692 120.051C-151.972 97.0468 -108.512 86.5 -57.6914 86.5C-32.4617 86.5 -16.3278 92.9144 -5.22742 103.215C5.92239 113.562 12.1903 128.003 17.3184 144.486C19.2495 150.693 21.0063 157.143 22.8058 163.751C23.395 165.914 23.9888 168.094 24.5947 170.288C27.0458 179.162 29.6877 188.228 33.0027 197.16C39.636 215.036 48.985 232.44 64.9895 246.889Z" stroke="#EFC99B" stroke-width="3"/>
<path d="M58.7444 248.384C97.5736 283.368 118.276 337.378 105.94 380.761C99.7866 402.398 85.3993 421.488 60.7641 434.372C36.1573 447.241 1.2513 453.953 -45.9803 450.676C-118.486 406.159 -162.563 375.148 -188.562 343.371C-214.49 311.682 -222.5 279.145 -222.5 231.258C-222.5 183.57 -205.276 149.98 -176.212 128.26C-147.077 106.487 -105.851 96.5 -57.6307 96.5C-33.7003 96.5 -18.4093 102.571 -7.89281 112.311C2.6727 122.096 8.61588 135.755 13.4815 151.363C15.3135 157.24 16.9802 163.347 18.6878 169.604C19.2471 171.653 19.8108 173.719 20.3861 175.797C22.7123 184.203 25.2202 192.791 28.3674 201.255C34.6653 218.192 43.5435 234.688 58.7444 248.384Z" stroke="#EFC99B" stroke-width="3"/>
<path d="M52.4995 249.878C89.2263 282.894 108.796 333.855 97.1342 374.773C91.3185 395.178 77.7199 413.184 54.4272 425.338C31.1628 437.477 -1.84596 443.814 -46.5211 440.724C-115.123 398.698 -156.815 369.428 -181.405 339.441C-205.923 309.543 -213.5 278.845 -213.5 233.646C-213.5 188.646 -197.212 156.96 -169.733 136.47C-142.182 115.928 -103.191 106.5 -57.5699 106.5C-34.9388 106.5 -20.4906 112.229 -10.5581 121.406C-0.576874 130.629 5.04155 143.508 9.64468 158.24C11.3777 163.786 12.9542 169.55 14.5698 175.457C15.0992 177.392 15.6328 179.343 16.1774 181.307C18.3788 189.243 20.7528 197.354 23.7322 205.349C29.6946 221.347 38.1021 236.936 52.4995 249.878Z" stroke="#EFC99B" stroke-width="3"/>
<path d="M44.8662 251.671C79.0236 282.324 97.2101 329.626 86.372 367.587C80.9682 386.515 68.3332 403.219 46.6816 414.497C25.0581 425.761 -5.63152 431.646 -47.1818 428.781C-111.012 389.745 -149.789 362.564 -172.657 334.726C-195.452 306.976 -202.5 278.486 -202.5 236.511C-202.5 194.737 -187.355 165.334 -161.813 146.322C-136.199 127.257 -99.939 118.5 -57.4957 118.5C-36.453 118.5 -23.0351 123.817 -13.8161 132.321C-4.54893 140.869 0.672729 152.81 4.95506 166.492C6.56725 171.643 8.03371 176.995 9.5372 182.482C10.0298 184.28 10.5264 186.093 11.0334 187.918C13.0823 195.291 15.2925 202.83 18.0668 210.261C23.6191 225.134 31.451 239.632 44.8662 251.671Z" stroke="#EFC99B" stroke-width="3"/>
<path d="M37.9274 253.315C69.7488 281.802 86.677 325.75 76.5882 361.001C71.5591 378.572 59.8004 394.084 39.6405 404.559C19.5086 415.021 -9.07292 420.493 -47.7827 417.833C-107.275 381.538 -143.402 356.273 -164.704 330.403C-185.933 304.623 -192.5 278.157 -192.5 239.138C-192.5 200.32 -178.395 173.011 -154.614 155.353C-130.761 137.641 -96.983 129.5 -57.4282 129.5C-37.8291 129.5 -25.3477 134.44 -16.7776 142.326C-8.15961 150.256 -3.29877 161.338 0.691864 174.057C2.19408 178.845 3.56033 183.819 4.96173 188.921C5.4211 190.594 5.88423 192.28 6.35718 193.978C8.26729 200.835 10.3287 207.85 12.9166 214.765C18.0961 228.605 25.405 242.105 37.9274 253.315Z" stroke="#EFC99B" stroke-width="3"/>
<path d="M30.9887 254.959C60.4742 281.28 76.1437 321.874 66.8045 354.414C62.1502 370.63 51.2679 384.948 32.5997 394.622C13.9593 404.281 -12.5144 409.34 -48.3837 406.885C-103.538 373.33 -137.015 349.981 -156.752 326.08C-176.415 302.269 -182.5 277.827 -182.5 241.765C-182.5 205.904 -169.435 180.688 -147.415 164.384C-125.322 148.026 -94.0271 140.5 -57.3607 140.5C-39.2051 140.5 -27.6601 145.062 -19.7388 152.331C-11.7701 159.643 -7.27017 169.866 -3.57127 181.622C-2.17897 186.047 -0.912842 190.644 0.38649 195.361C0.812531 196.908 1.24214 198.467 1.68094 200.038C3.45235 206.38 5.3649 212.87 7.76642 219.269C12.5732 232.077 19.3591 244.577 30.9887 254.959Z" stroke="#EFC99B" stroke-width="3"/>
<path d="M23.3561 256.752C50.272 280.711 64.5571 317.646 56.0424 347.228C51.8004 361.966 41.882 374.983 24.8547 383.781C7.85487 392.564 -16.3 397.173 -49.0448 394.942C-99.4275 364.377 -129.99 343.117 -148.005 321.364C-165.944 299.702 -171.5 277.467 -171.5 244.63C-171.5 211.995 -159.579 189.063 -139.496 174.236C-119.34 159.355 -90.7755 152.5 -57.2864 152.5C-40.7188 152.5 -30.2039 156.651 -22.9963 163.246C-15.7418 169.883 -11.6388 179.169 -8.26074 189.874C-6.9894 193.903 -5.83344 198.088 -4.64639 202.386C-4.25697 203.795 -3.86421 205.217 -3.46292 206.65C-1.84409 212.428 -0.0952759 218.346 2.10121 224.182C6.49802 235.864 12.7086 247.275 23.3561 256.752Z" stroke="#EFC99B" stroke-width="3"/>
<path d="M17.1074 258.094C41.9211 280.28 55.0794 314.472 47.2363 341.841C43.3301 355.472 34.1978 367.512 18.5142 375.652C2.85823 383.777 -19.3971 388.047 -49.583 385.985C-96.0606 357.664 -124.238 337.972 -140.844 317.831C-157.376 297.78 -162.5 277.199 -162.5 246.779C-162.5 216.56 -151.511 195.34 -133.013 181.622C-114.442 167.85 -88.1134 161.5 -57.2257 161.5C-41.9598 161.5 -32.2891 165.341 -25.6652 171.428C-18.9937 177.559 -15.2144 186.143 -12.0985 196.061C-10.9259 199.794 -9.85997 203.67 -8.76474 207.652C-8.40533 208.959 -8.04279 210.277 -7.67227 211.606C-6.1783 216.962 -4.5636 222.451 -2.53514 227.864C1.52548 238.701 7.26433 249.294 17.1074 258.094Z" stroke="#EFC99B" stroke-width="3"/>
<path d="M10.8637 259.59C33.575 279.807 45.5988 310.949 38.4312 335.852C34.8627 348.25 26.5199 359.206 12.1785 366.617C-2.13565 374.013 -22.4945 377.908 -50.1246 376.033C-92.6986 350.202 -118.491 332.251 -133.688 313.9C-148.81 295.639 -153.5 276.899 -153.5 249.167C-153.5 221.637 -143.448 202.321 -126.535 189.833C-109.548 177.291 -85.4535 171.5 -57.1649 171.5C-43.1975 171.5 -34.3692 174.998 -28.3293 180.525C-22.2425 186.094 -18.7883 193.897 -15.935 202.939C-14.8615 206.341 -13.8858 209.874 -12.8825 213.506C-12.553 214.699 -12.2205 215.903 -11.8807 217.116C-10.5115 222.003 -9.03073 227.015 -7.16997 231.959C-3.44458 241.858 1.82384 251.543 10.8637 259.59Z" stroke="#EFC99B" stroke-width="3"/>
<path d="M4.62044 261.086C25.2295 279.335 36.1179 307.427 29.6261 329.863C26.3956 341.028 18.8425 350.9 5.84325 357.582C-7.12929 364.249 -25.592 367.769 -50.6667 366.08C-89.3371 342.74 -112.745 326.53 -126.532 309.969C-140.244 293.498 -144.5 276.598 -144.5 251.555C-144.5 226.715 -135.385 209.302 -120.057 198.044C-104.655 186.732 -82.7939 181.5 -57.1041 181.5C-44.4349 181.5 -36.4488 184.656 -30.9929 189.622C-25.491 194.63 -22.362 201.651 -19.7715 209.818C-18.7969 212.89 -17.9113 216.079 -16.9998 219.362C-16.7003 220.44 -16.3981 221.529 -16.089 222.626C-14.8447 227.045 -13.4978 231.58 -11.8046 236.055C-8.4144 245.015 -3.61626 253.792 4.62044 261.086Z" stroke="#EFC99B" stroke-width="3"/>
<path d="M-2.31642 262.731C15.9567 278.816 25.5835 303.552 19.8428 323.275C16.9877 333.083 10.3123 341.763 -1.19586 347.643C-12.6778 353.509 -29.0337 356.616 -51.269 355.132C-85.602 334.533 -106.36 320.237 -118.581 305.644C-130.725 291.143 -134.5 276.268 -134.5 254.181C-134.5 232.3 -126.426 216.981 -112.86 207.077C-99.2184 197.117 -79.8387 192.5 -57.0366 192.5C-45.8098 192.5 -38.7594 195.28 -33.9523 199.629C-29.1005 204.019 -26.3328 210.181 -24.0342 217.384C-23.1696 220.093 -22.3842 222.905 -21.5748 225.802C-21.3086 226.755 -21.0399 227.717 -20.7649 228.688C-19.6592 232.591 -18.4611 236.601 -16.9542 240.56C-13.9364 248.489 -9.66074 256.267 -2.31642 262.731Z" stroke="#EFC99B" stroke-width="3"/>
<path d="M-9.95443 264.371C5.74919 278.287 14.0001 299.672 9.07957 316.691C6.63463 325.148 0.919579 332.633 -8.9461 337.708C-18.7853 342.769 -32.8192 345.462 -51.9263 344.185C-81.4861 326.327 -99.3289 313.949 -109.829 301.326C-120.253 288.795 -123.5 275.941 -123.5 256.808C-123.5 237.878 -116.566 224.652 -104.936 216.104C-93.2314 207.501 -76.5847 203.5 -56.9624 203.5C-47.3271 203.5 -41.3088 205.9 -37.2151 209.629C-33.0754 213.4 -30.7033 218.703 -28.7249 224.945C-27.9812 227.291 -27.3058 229.726 -26.6086 232.238C-26.3791 233.065 -26.1472 233.901 -25.9098 234.745C-24.9568 238.132 -23.9226 241.617 -22.6211 245.059C-20.0143 251.955 -16.3154 258.734 -9.95443 264.371Z" stroke="#EFC99B" stroke-width="3"/>
<path d="M-17.5846 266.166C-4.45042 277.721 2.4121 295.446 -1.68204 309.504C-3.71375 316.48 -8.46319 322.665 -16.6887 326.866C-24.8885 331.053 -36.6053 333.295 -52.5892 332.242C-77.3778 317.373 -92.3058 307.084 -101.084 296.608C-109.783 286.225 -112.5 275.58 -112.5 259.673C-112.5 243.972 -106.712 233.03 -97.0193 225.958C-87.2512 218.83 -73.3342 215.5 -56.8881 215.5C-48.8392 215.5 -43.85 217.49 -40.4701 220.546C-37.0456 223.643 -35.071 228.009 -33.4138 233.199C-32.791 235.15 -32.2258 237.172 -31.6409 239.265C-31.4481 239.955 -31.2531 240.653 -31.0532 241.358C-30.2527 244.182 -29.3821 247.095 -28.2856 249.975C-26.0883 255.745 -22.9641 261.434 -17.5846 266.166Z" stroke="#EFC99B" stroke-width="3"/>
<path d="M101.077 237.95C154.155 286.03 182.526 360.315 165.622 420.078C157.185 449.905 137.456 476.209 103.719 493.947C70.012 511.67 22.2434 520.88 -42.3187 516.359C-141.286 455.273 -201.528 412.681 -237.077 368.999C-272.555 325.403 -283.5 280.635 -283.5 214.879C-283.5 149.321 -259.939 103.076 -220.133 73.1684C-180.257 43.2085 -123.885 29.5 -58.0424 29.5C-25.3023 29.5 -4.29675 37.854 10.1772 51.3303C24.701 64.8532 32.8438 83.7065 39.4882 105.134C41.9906 113.204 44.268 121.594 46.5982 130.179C47.3607 132.988 48.1288 135.817 48.9123 138.664C52.0847 150.188 55.5008 161.948 59.7855 173.532C68.3582 196.711 80.4283 219.247 101.077 237.95Z" stroke="#EFC99B" stroke-width="3"/>
<path d="M110.252 236.434C166.25 287.173 196.191 365.573 178.352 428.661C169.447 460.151 148.624 487.918 113.022 506.642C77.4497 525.351 27.0451 535.068 -41.0687 530.295C-145.459 465.845 -209.013 420.901 -246.519 374.802C-283.954 328.79 -295.5 281.539 -295.5 212.156C-295.5 142.97 -270.64 94.1555 -228.633 62.5861C-186.556 30.964 -127.081 16.5 -57.6268 16.5C-23.0811 16.5 -0.904327 25.3176 14.3805 39.5528C29.7153 53.8346 38.3087 73.7422 45.3175 96.3513C47.9573 104.867 50.3599 113.72 52.8176 122.777C53.6217 125.74 54.4317 128.725 55.2579 131.727C58.6037 143.884 62.206 156.288 66.7238 168.507C75.7627 192.952 88.4871 216.714 110.252 236.434Z" stroke="#EFC99B" stroke-width="3"/>
</svg>
