<svg width="615" height="465" viewBox="0 0 615 465" fill="none" xmlns="http://www.w3.org/2000/svg">
<mask id="mask0_1700_1108" style="mask-type:alpha" maskUnits="userSpaceOnUse" x="0" y="0" width="615" height="465">
<rect width="615" height="464.305" fill="#D9D9D9"/>
</mask>
<g mask="url(#mask0_1700_1108)">
<path d="M1082.43 47.7292C1081.69 48.8056 1080.77 50.1522 1079.68 51.7512C1060.72 79.5527 989.755 183.652 892.187 270.317C788.253 362.637 654.728 434.669 521.921 374.741C407.269 299.469 299.328 260.819 213.233 229.992C188.617 221.177 165.787 213.002 145.096 204.794C98.4745 186.298 62.9051 167.706 41.931 141.444C21.0791 115.335 14.4792 81.3991 26.4158 31.7015C73.5262 -77.3894 144.026 -184.411 229.366 -264.148C314.743 -343.92 414.858 -396.281 521.196 -396.281C627.603 -396.281 767.976 -338.397 881.801 -253.723C938.69 -211.404 988.872 -162.446 1024.82 -110.782C1060.67 -59.2614 1082.3 -5.13925 1082.43 47.7292Z" stroke="#EFC99B" stroke-width="3"/>
<path d="M1047.8 44.3828C1047.11 45.3849 1046.26 46.6352 1045.25 48.1174C1027.54 74.1034 961.227 171.391 870.065 252.384C772.949 338.666 648.221 405.953 524.179 349.972C417.033 279.614 316.154 243.485 235.703 214.672C212.702 206.435 191.37 198.795 172.04 191.124C128.474 173.837 95.2586 156.468 75.6769 131.944C56.2172 107.573 50.0483 75.8902 61.1953 29.4635C105.214 -72.4867 171.084 -172.501 250.817 -247.015C330.588 -321.564 424.119 -370.488 523.454 -370.488C622.858 -370.488 754.011 -316.398 860.366 -237.264C913.52 -197.715 960.405 -151.963 993.99 -103.686C1027.47 -55.5511 1047.68 -4.9953 1047.8 44.3828Z" stroke="#EFC99B" stroke-width="3"/>
<path d="M1003.01 40.2914C1002.38 41.1959 1001.62 42.32 1000.71 43.6495C984.591 67.264 924.258 155.662 841.316 229.254C752.954 307.656 639.52 368.75 526.729 317.921C429.218 253.976 337.406 221.138 264.199 194.954C243.272 187.469 223.865 180.528 206.281 173.559C166.638 157.85 136.444 142.075 118.65 119.82C100.979 97.7173 95.3631 68.977 105.496 26.8202C145.545 -65.8099 205.472 -156.678 278.007 -224.376C350.58 -292.109 435.658 -336.547 526.004 -336.547C616.419 -336.547 735.735 -287.409 832.5 -215.505C880.859 -179.57 923.512 -138.003 954.062 -94.1454C984.512 -50.4308 1002.88 -4.53036 1003.01 40.2914Z" stroke="#EFC99B" stroke-width="3"/>
<path d="M966.351 37.0181C965.782 37.8448 965.084 38.8682 964.26 40.0759C949.447 61.7941 894.007 143.08 817.792 210.75C736.591 282.848 632.398 338.987 528.813 292.279C439.186 233.465 354.792 203.259 287.514 179.179C268.283 172.296 250.451 165.914 234.295 159.507C197.862 145.059 170.14 130.562 153.809 110.121C137.599 89.833 132.437 63.4455 141.74 24.7039C178.541 -60.4702 233.606 -144.021 300.253 -206.266C366.937 -268.546 445.098 -309.395 528.089 -309.395C611.147 -309.395 720.778 -264.219 809.698 -198.099C854.134 -165.056 893.323 -126.837 921.391 -86.5151C949.359 -46.3363 966.224 -4.15945 966.351 37.0181Z" stroke="#EFC99B" stroke-width="3"/>
<path d="M926.976 33.416C926.466 34.1566 925.842 35.0689 925.109 36.1421C911.699 55.7728 861.512 129.237 792.522 190.395C719.014 255.558 624.746 306.247 531.047 264.072C449.888 210.902 373.461 183.592 312.549 161.826C295.141 155.605 279 149.838 264.378 144.048C231.393 130.989 206.327 117.895 191.566 99.4502C176.929 81.1589 172.252 57.3605 180.664 22.3766C213.977 -54.5957 263.819 -130.097 324.14 -186.344C384.498 -242.626 455.232 -279.527 530.323 -279.527C605.482 -279.527 704.711 -238.709 785.204 -178.952C825.426 -149.09 860.895 -114.553 886.297 -78.1207C911.598 -41.8316 926.849 -3.75162 926.976 33.416Z" stroke="#EFC99B" stroke-width="3"/>
<path d="M890.321 30.1428C889.865 30.8052 889.311 31.6169 888.661 32.5685C876.555 50.3031 831.261 116.656 768.998 171.891C702.651 230.75 617.624 276.483 533.131 238.431C459.856 190.392 390.848 165.714 335.864 146.051C320.152 140.433 305.586 135.224 292.392 129.996C262.617 118.198 240.023 106.381 226.725 89.7513C213.549 73.2747 209.326 51.8291 216.909 20.2603C246.973 -49.2561 291.954 -117.441 346.385 -168.234C400.855 -219.063 464.672 -252.375 532.407 -252.375C600.211 -252.375 689.755 -215.519 762.401 -161.546C798.701 -134.576 830.707 -103.387 853.626 -70.4904C876.444 -37.737 890.195 -3.38077 890.321 30.1428Z" stroke="#EFC99B" stroke-width="3"/>
<path d="M853.666 26.8697C853.264 27.4537 852.78 28.1645 852.214 28.9945C841.412 44.832 801.01 104.073 745.474 153.387C686.287 205.943 610.502 246.719 535.216 212.789C469.825 169.881 408.234 147.835 359.178 130.276C345.163 125.26 332.172 120.61 320.407 115.944C293.841 105.408 273.72 94.8675 261.884 80.0525C250.17 65.3905 246.399 46.2976 253.153 18.1439C279.97 -43.9166 320.088 -104.784 368.631 -150.125C417.211 -195.5 474.112 -225.223 534.492 -225.223C594.939 -225.223 674.798 -192.329 739.599 -144.14C771.976 -120.063 800.518 -92.2213 820.954 -62.8603C841.291 -33.6426 853.54 -3.0099 853.666 26.8697Z" stroke="#EFC99B" stroke-width="3"/>
<path d="M817.011 23.5968C816.664 24.1019 816.249 24.7119 815.766 25.4207C806.27 39.361 770.759 91.4911 721.949 134.884C669.924 181.135 603.38 216.955 537.301 187.148C479.794 149.37 425.62 129.957 382.492 114.501C370.174 110.087 358.757 105.996 348.421 101.891C325.065 92.6178 307.416 83.3538 297.043 70.3539C286.791 57.5064 283.473 40.7661 289.397 16.0274C312.966 -38.5772 348.223 -92.1278 390.876 -132.015C433.567 -171.937 483.552 -198.07 536.576 -198.07C589.667 -198.07 659.841 -169.138 716.796 -126.734C745.25 -105.549 770.329 -81.0554 788.283 -55.2302C806.137 -29.5484 816.885 -2.63908 817.011 23.5968Z" stroke="#EFC99B" stroke-width="3"/>
<path d="M783.067 20.4884C782.772 20.9182 782.421 21.4323 782.016 22.0259C773.728 34.1643 742.747 79.5384 700.166 117.306C654.772 157.568 596.783 188.684 539.226 162.79C489.019 129.886 441.714 112.974 404.075 99.5168C393.328 95.6745 383.369 92.1139 374.355 88.5432C353.971 80.4683 338.611 72.4166 329.592 61.1404C320.696 50.0172 317.797 35.5132 322.953 14.0203C343.514 -33.5007 374.268 -80.1 411.469 -114.807C448.707 -149.549 492.288 -172.273 538.502 -172.273C584.784 -172.273 645.991 -147.104 695.681 -110.195C720.503 -91.7573 742.375 -70.4437 758.03 -47.9775C773.585 -25.655 782.941 -2.28412 783.067 20.4884Z" stroke="#EFC99B" stroke-width="3"/>
<path d="M746.412 17.2157C746.172 17.5659 745.89 17.9792 745.567 18.4523C738.584 28.694 712.496 66.9565 676.641 98.8024C638.408 132.761 589.661 158.92 541.311 137.148C498.988 109.375 459.101 95.0952 427.39 83.742C418.339 80.5018 409.954 77.4999 402.369 74.4909C385.195 67.6781 372.308 60.903 364.751 51.4418C357.316 42.1331 354.87 29.9816 359.197 11.9037C376.511 -28.1615 402.403 -67.4437 433.714 -96.6974C465.063 -125.986 501.729 -145.121 540.587 -145.121C579.513 -145.121 631.035 -123.915 672.878 -92.789C693.777 -77.2438 712.186 -59.278 725.359 -40.3476C738.431 -21.5609 746.287 -1.91331 746.412 17.2157Z" stroke="#EFC99B" stroke-width="3"/>
<path d="M709.757 13.9435C709.572 14.213 709.36 14.5255 709.119 14.879C703.441 23.2234 682.244 54.3748 653.116 80.2993C622.044 107.954 582.539 129.155 543.396 111.507C508.957 88.8649 476.488 77.2168 450.704 67.9673C443.351 65.3291 436.541 62.8861 430.384 60.4388C416.42 54.8881 406.005 49.3897 399.91 41.7437C393.937 34.2493 391.944 24.4499 395.441 9.78683C409.508 -22.8226 430.538 -54.7878 455.96 -78.5883C481.42 -102.424 511.169 -117.969 542.671 -117.969C574.241 -117.969 616.077 -100.725 650.075 -75.3836C667.051 -62.7306 681.997 -48.1126 692.687 -32.7181C703.278 -17.4672 709.632 -1.54255 709.757 13.9435Z" stroke="#EFC99B" stroke-width="3"/>
<path d="M670.389 10.3418C670.267 10.5204 670.129 10.7215 669.977 10.9443C665.701 17.2023 649.758 40.5311 627.856 59.9422C604.477 80.6615 574.895 96.4175 545.636 83.2994C519.664 66.3014 495.163 57.5494 475.747 50.6138C470.215 48.6379 465.097 46.8095 460.474 44.9798C449.957 40.817 442.198 36.7221 437.675 31.0716C433.274 25.5737 431.767 18.3643 434.373 7.46055C444.951 -16.9466 460.757 -40.8629 479.854 -58.6653C498.988 -76.5028 521.309 -88.1016 544.913 -88.1016C568.584 -88.1016 600.02 -75.214 625.59 -56.2352C638.352 -46.7632 649.578 -35.8274 657.602 -24.3222C665.524 -12.9615 670.265 -1.1341 670.389 10.3418Z" stroke="#EFC99B" stroke-width="3"/>
<path d="M639.165 7.56069C639.092 7.66672 639.014 7.78212 638.929 7.90659C635.764 12.5523 623.989 29.8362 607.816 44.2139C590.537 59.5751 568.828 71.1156 547.414 61.5032C528.158 48.8662 509.975 42.3515 495.609 37.2041C491.523 35.74 487.746 34.3866 484.34 33.0344C476.558 29.9444 470.904 26.935 467.627 22.8276C464.47 18.8715 463.349 13.6604 465.249 5.65911C473.06 -12.4108 484.726 -30.1075 498.806 -43.2746C512.924 -56.4769 529.353 -65.0234 546.689 -65.0234C564.094 -65.0234 587.278 -55.5046 606.166 -41.4425C615.586 -34.429 623.862 -26.3389 629.771 -17.8392C635.579 -9.48421 639.042 -0.820457 639.165 7.56069Z" stroke="#EFC99B" stroke-width="3"/>
<path d="M603.863 4.28434C603.854 4.29648 603.846 4.30877 603.837 4.32121C601.929 7.06962 594.866 17.243 585.172 25.7005C574.795 34.7542 561.974 41.3636 549.408 35.8555C537.745 28.351 526.707 24.4706 518.05 21.4269C515.598 20.5647 513.336 19.7696 511.306 18.9783C506.612 17.1493 503.339 15.4136 501.472 13.1175C499.732 10.9772 499.05 8.12617 500.147 3.55064C504.828 -7.06051 511.808 -17.4397 520.215 -25.1548C528.659 -32.9046 538.432 -37.8711 548.695 -37.8711C559.024 -37.8711 572.887 -32.3073 584.217 -24.0282C589.86 -19.9053 594.799 -15.1618 598.316 -10.1977C601.727 -5.38191 603.739 -0.446655 603.863 4.28434Z" stroke="#EFC99B" stroke-width="3"/>
</g>
</svg>
