<svg width="202" height="44" viewBox="0 0 202 44" fill="none" xmlns="http://www.w3.org/2000/svg">
<path d="M55.5385 10.8047H51.3711V33.6438H55.5385V10.8047Z" fill="white"/>
<path d="M63.5138 33.2358C61.911 32.7446 60.6287 32.0898 59.707 31.2302L61.1496 27.9149C62.0712 28.6516 63.1932 29.2656 64.5156 29.7158C65.838 30.166 67.2004 30.4116 68.5227 30.4116C70.1657 30.4116 71.4079 30.1251 72.2494 29.593C73.0508 29.0609 73.4916 28.3242 73.4916 27.4237C73.4916 26.7688 73.2512 26.2367 72.8104 25.8274C72.3696 25.4181 71.7685 25.0907 71.0873 24.8451C70.366 24.5995 69.4444 24.354 68.2022 24.0265C66.4791 23.6172 65.1167 23.2079 64.0748 22.7986C63.033 22.3893 62.1113 21.7344 61.35 20.8749C60.5886 19.9744 60.228 18.7874 60.228 17.3139C60.228 16.0451 60.5485 14.8991 61.2297 13.8758C61.911 12.8526 62.9127 12.0339 64.2752 11.42C65.6376 10.806 67.2805 10.5195 69.244 10.5195C70.6065 10.5195 71.9288 10.6833 73.2512 11.0516C74.5735 11.42 75.6955 11.9112 76.6572 12.566L75.3349 15.8814C74.3732 15.3084 73.3313 14.8581 72.2494 14.5307C71.1675 14.2442 70.1657 14.0805 69.1639 14.0805C67.521 14.0805 66.3188 14.367 65.5174 14.94C64.716 15.513 64.3152 16.2498 64.3152 17.1912C64.3152 17.846 64.5557 18.3781 64.9965 18.7874C65.4372 19.1967 66.0383 19.5242 66.7195 19.7698C67.4408 20.0153 68.3625 20.2609 69.6047 20.5884C71.2476 20.9977 72.61 21.407 73.692 21.8163C74.7739 22.2256 75.6555 22.8805 76.4168 23.74C77.1782 24.5995 77.5388 25.7865 77.5388 27.26C77.5388 28.5288 77.2182 29.6749 76.537 30.6981C75.8558 31.7214 74.854 32.54 73.4916 33.1539C72.1292 33.686 70.4462 33.9726 68.5227 33.9726C66.7997 33.9726 65.1167 33.727 63.5138 33.2358Z" fill="white"/>
<path d="M85.953 32.4581C84.1097 31.4348 82.6671 30.0432 81.6253 28.2422C80.5834 26.4413 80.0625 24.4357 80.0625 22.2255C80.0625 20.0153 80.5834 18.0097 81.6253 16.2087C82.6671 14.4078 84.1097 13.0162 85.953 11.9929C87.7963 10.9697 89.8399 10.4785 92.124 10.4785C94.4081 10.4785 96.4517 10.9697 98.295 11.9929C100.138 13.0162 101.581 14.4078 102.623 16.1678C103.665 17.9687 104.185 19.9743 104.185 22.1846C104.185 24.4357 103.665 26.4413 102.623 28.2013C101.581 30.0022 100.138 31.3939 98.295 32.3762C96.4517 33.3994 94.4081 33.8906 92.124 33.8906C89.8399 33.9725 87.7963 33.4813 85.953 32.4581ZM96.1311 29.2246C97.3333 28.5287 98.2549 27.5874 98.9361 26.3594C99.6173 25.1315 99.9379 23.7399 99.9379 22.2255C99.9379 20.7111 99.6173 19.3194 98.9361 18.0915C98.2549 16.8636 97.3333 15.9222 96.1311 15.2264C94.929 14.5306 93.6066 14.2032 92.124 14.2032C90.6414 14.2032 89.2789 14.5306 88.1169 15.2264C86.9147 15.9222 85.9931 16.8636 85.3119 18.0915C84.6306 19.3194 84.3101 20.7111 84.3101 22.2255C84.3101 23.7399 84.6306 25.1315 85.3119 26.3594C85.9931 27.5874 86.9147 28.5287 88.1169 29.2246C89.319 29.9204 90.6414 30.2478 92.124 30.2478C93.6066 30.2478 94.929 29.9204 96.1311 29.2246Z" fill="white"/>
<path d="M112.8 32.4572C110.996 31.434 109.554 30.0424 108.512 28.2824C107.47 26.4814 106.949 24.4758 106.949 22.2656C106.949 20.0554 107.47 18.0089 108.512 16.2489C109.554 14.4479 110.996 13.0563 112.8 12.074C114.603 11.0507 116.647 10.5596 118.931 10.5596C120.774 10.5596 122.417 10.887 123.939 11.5419C125.462 12.1968 126.744 13.1382 127.786 14.3661L125.102 16.9447C123.499 15.1438 121.495 14.2842 119.131 14.2842C117.608 14.2842 116.206 14.6117 115.004 15.3075C113.801 16.0033 112.84 16.9447 112.159 18.1726C111.477 19.4005 111.157 20.7921 111.157 22.3065C111.157 23.821 111.477 25.2126 112.159 26.4405C112.84 27.6684 113.801 28.6098 115.004 29.3056C116.206 30.0014 117.608 30.3289 119.131 30.3289C121.495 30.3289 123.499 29.4284 125.102 27.6275L127.786 30.247C126.744 31.4749 125.462 32.4163 123.939 33.0712C122.417 33.7261 120.734 34.0535 118.891 34.0535C116.647 33.9717 114.603 33.4805 112.8 32.4572Z" fill="white"/>
<path d="M135.562 32.4581C133.719 31.4348 132.277 30.0432 131.235 28.2422C130.193 26.4413 129.672 24.4357 129.672 22.2255C129.672 20.0153 130.193 18.0097 131.235 16.2087C132.277 14.4078 133.719 13.0162 135.562 11.9929C137.406 10.9697 139.449 10.4785 141.733 10.4785C144.017 10.4785 146.061 10.9697 147.904 11.9929C149.748 13.0162 151.19 14.4078 152.232 16.1678C153.274 17.9687 153.795 19.9743 153.795 22.1846C153.795 24.4357 153.274 26.4413 152.232 28.2013C151.19 30.0022 149.748 31.3939 147.904 32.3762C146.061 33.3994 144.017 33.8906 141.733 33.8906C139.449 33.8906 137.406 33.4813 135.562 32.4581ZM145.781 29.2246C146.983 28.5287 147.904 27.5874 148.586 26.3594C149.267 25.1315 149.587 23.7399 149.587 22.2255C149.587 20.7111 149.267 19.3194 148.586 18.0915C147.904 16.8636 146.983 15.9222 145.781 15.2264C144.578 14.5306 143.256 14.2032 141.773 14.2032C140.291 14.2032 138.928 14.5306 137.766 15.2264C136.564 15.9222 135.643 16.8636 134.961 18.0915C134.28 19.3194 133.96 20.7111 133.96 22.2255C133.96 23.7399 134.28 25.1315 134.961 26.3594C135.643 27.5874 136.564 28.5287 137.766 29.2246C138.968 29.9204 140.291 30.2478 141.773 30.2478C143.256 30.2478 144.578 29.9204 145.781 29.2246Z" fill="white"/>
<path d="M172.826 33.6438L168.258 26.9721C168.058 27.0131 167.777 27.0131 167.377 27.0131H162.328V33.6847H158.16V10.8047H167.377C169.3 10.8047 170.983 11.1321 172.426 11.787C173.868 12.4419 174.95 13.3833 175.711 14.6112C176.473 15.8391 176.874 17.2717 176.874 18.9498C176.874 20.6689 176.473 22.1424 175.631 23.3703C174.83 24.5982 173.628 25.5396 172.105 26.1535L177.234 33.6438H172.826ZM171.304 15.5935C170.382 14.8158 168.979 14.4065 167.176 14.4065H162.328V23.4931H167.176C168.979 23.4931 170.342 23.0838 171.304 22.3061C172.225 21.5284 172.706 20.3824 172.706 18.9498C172.706 17.4763 172.265 16.3712 171.304 15.5935Z" fill="white"/>
<path d="M189.257 24.107L185.691 27.8317V33.6438H181.523V10.8047H185.691V22.5107L196.751 10.8047H201.399L192.022 21.0372L202 33.6438H197.111L189.257 24.107Z" fill="white"/>
<path d="M21.5584 44C9.65721 44 0 34.1358 0 22.0205C0 9.86418 9.65721 0 21.5584 0C33.4596 0 43.1168 9.86418 43.1168 22.0205C43.0768 34.1358 33.4196 44 21.5584 44ZM21.5584 2.33302C10.8994 2.33302 2.28407 11.133 2.28407 22.0205C2.28407 32.867 10.9395 41.7079 21.5584 41.7079C32.1773 41.7079 40.8328 32.867 40.8328 22.0205C40.7927 11.133 32.1773 2.33302 21.5584 2.33302Z" fill="white"/>
<path d="M21.5586 35.4862L21.0377 35.1997C20.2363 34.7904 16.1891 32.5392 15.4678 30.0425C15.2674 29.3057 15.3476 28.569 15.7082 27.9141C16.0689 27.3001 15.9487 26.9727 15.9086 26.8499C15.7884 26.3997 15.2674 26.0313 15.0671 25.9495C14.8667 25.8676 13.0635 24.9262 12.5025 23.0843C12.1819 22.102 12.3022 21.0378 12.8632 20.0555L12.9433 19.8918C13.5043 19.155 13.4642 18.8685 12.8632 17.9271C11.7812 16.5355 11.4607 15.1848 11.8614 13.9978C12.5025 12.115 14.7866 11.542 15.027 11.4601C15.3877 11.3783 16.2692 11.0099 16.3093 10.6006C16.2292 8.63596 16.71 7.08061 17.7118 6.01643C18.954 4.66573 20.6771 4.46108 21.5586 4.46108C23.2416 4.46108 24.564 4.95224 25.4456 5.93457C26.4474 6.99875 26.8881 8.59503 26.808 10.6415C26.808 11.0508 27.6896 11.4192 28.0903 11.5011C28.3708 11.5829 30.6148 12.156 31.2559 14.0388C31.6566 15.2257 31.3361 16.5764 30.2541 17.9681C29.6531 18.9095 29.613 19.155 30.174 19.9327L30.2541 20.0964C30.7751 21.0788 30.9354 22.1429 30.6148 23.1253C30.0538 24.9262 28.2506 25.8676 28.0502 25.9904C27.8499 26.0722 27.369 26.4406 27.2087 26.8908C27.1686 27.0136 27.0885 27.3411 27.4091 27.955C27.7697 28.6099 27.8499 29.3467 27.6495 30.0834C26.9282 32.5392 22.881 34.7495 22.0796 35.1997L21.5586 35.4862ZM14.8267 21.2425C14.5462 21.7746 14.6263 22.1429 14.6664 22.3885C14.9068 23.1662 15.8284 23.7392 16.0689 23.862C16.2292 23.9439 17.6316 24.6397 18.0724 26.1541C18.2728 26.809 18.3529 27.8322 17.6717 29.0601C17.6316 29.1011 17.5916 29.1829 17.6717 29.3467C17.9522 30.3699 19.9959 31.8843 21.5987 32.8257C23.2016 31.8843 25.1651 30.4108 25.4856 29.3467C25.5257 29.142 25.4856 29.1011 25.4856 29.0192C24.8044 27.7913 24.8846 26.7681 25.0849 26.1132C25.5257 24.5988 26.9282 23.9029 27.0885 23.8211C27.4091 23.6574 28.2506 23.0843 28.491 22.3476C28.5711 22.1429 28.6112 21.7746 28.3307 21.2015C26.808 19.1141 27.8098 17.5588 28.4109 16.6174L28.491 16.5355C29.052 15.7988 29.2924 15.1848 29.1722 14.7755C28.9719 14.2025 27.9701 13.8341 27.6495 13.7522C26.5275 13.5067 24.6041 12.5653 24.6041 10.6006V10.5597C24.6842 9.16805 24.4037 8.1448 23.8828 7.57178C23.4019 7.08061 22.6806 6.83503 21.6388 6.83503C21.1179 6.83503 20.1161 6.95782 19.4349 7.65364C18.8739 8.26759 18.5934 9.24991 18.6735 10.5597V10.6006C18.7136 12.5653 16.7902 13.5067 15.6281 13.7522C15.1873 13.875 14.3057 14.2434 14.1054 14.7755C13.9852 15.1848 14.2256 15.7988 14.7866 16.5355L14.8667 16.6174C15.3476 17.5997 16.3494 19.155 14.8267 21.2425Z" fill="white"/>
<path d="M22.6786 4.70703H20.3945V39.4977H22.6786V4.70703Z" fill="white"/>
</svg>
