<svg width="44" height="43" viewBox="0 0 44 43" fill="none" xmlns="http://www.w3.org/2000/svg">
<path fill-rule="evenodd" clip-rule="evenodd" d="M29.902 24.4725C28.7096 25.2909 27.4461 25.646 26.1004 25.6445C24.0977 25.6726 22.6147 25.258 21.3464 24.1956C19.5854 22.7233 19.489 20.6188 21.1126 19.0197C23.327 16.8401 28.0462 16.7713 30.3285 18.8851C32.1874 20.6063 32.0026 23.0299 29.902 24.4725ZM29.0589 20.4416C28.1679 19.6307 27.0868 19.385 26.2666 19.3948C24.578 19.3883 23.5194 19.711 22.7605 20.3581C21.963 21.0363 21.9243 21.798 22.651 22.527C24.0721 23.9522 27.612 23.9653 29.0767 22.5499C29.7985 21.8537 29.7985 21.1133 29.0589 20.4416Z" fill="#EFC99B"/>
<path d="M15.364 20.0099C15.4336 19.9101 15.5105 19.8 15.5989 19.6753C15.4047 19.6753 15.2212 19.676 15.0453 19.6766C14.6134 19.6781 14.2276 19.6795 13.8426 19.6706L13.789 19.6697C13.5438 19.6656 13.2934 19.6614 13.0608 19.6002C12.4986 19.4516 12.1353 19.1214 12.1874 18.483C12.238 17.8431 12.6439 17.5427 13.2298 17.5348C15.1488 17.5114 17.0694 17.5098 18.9899 17.5333C19.6154 17.5411 19.7212 17.8572 19.3058 18.4064C18.6408 19.2865 17.9694 20.1617 17.2978 21.0372C16.9678 21.4674 16.6375 21.898 16.3081 22.329C16.1623 22.5204 16.019 22.7134 15.8225 22.9779L15.8195 22.982C15.7422 23.0861 15.6566 23.2014 15.5595 23.3319C15.8092 23.3319 16.0406 23.3305 16.2595 23.3292C16.7328 23.3263 17.1474 23.3238 17.5621 23.3366C17.9775 23.3491 18.404 23.3648 18.8051 23.4602C19.3658 23.5932 19.6343 24.0125 19.5696 24.5727C19.5048 25.1407 19.1242 25.4677 18.5556 25.4724C16.425 25.4896 14.2944 25.4943 12.1637 25.4724C11.4767 25.4661 11.5193 25.1031 11.8558 24.6603C12.9171 23.2678 13.9737 21.8721 15.0304 20.4764C15.1376 20.3341 15.2397 20.1878 15.364 20.0099Z" fill="#EFC99B"/>
<path fill-rule="evenodd" clip-rule="evenodd" d="M43.76 0H0.761719V42.9982H43.76V0ZM9.12023 25.0577C7.1902 26.225 5.22699 25.7587 3.22431 23.6574C3.1406 23.6605 3.05531 23.6652 2.96529 23.6714C2.96529 23.9081 2.96322 24.1447 2.96116 24.3814C2.95671 24.8911 2.95227 25.4008 2.96845 25.9105C3.11691 30.581 5.43706 33.8777 9.57668 35.9478C13.1667 37.7424 17.0141 37.913 20.8947 37.3434C24.7137 36.7848 28.2405 35.3751 31.4814 33.2863C34.5897 31.2835 37.1957 28.7816 39.1731 25.657L39.1827 25.642C39.3702 25.3491 39.5409 25.0824 39.1542 24.787C38.4227 24.2274 37.6945 23.663 36.9662 23.0986C36.3692 22.6359 35.7715 22.1727 35.1725 21.7125C35.1451 21.6914 35.0955 21.6987 35.0305 21.7083C34.9943 21.7136 34.9534 21.7196 34.9087 21.7219C34.9087 21.9984 34.9098 22.2731 34.9108 22.5464C34.9131 23.1668 34.9154 23.7808 34.9056 24.3943C34.8945 25.0014 34.5518 25.3957 33.9564 25.452C33.3593 25.5083 32.9471 25.1938 32.8334 24.5868C32.7813 24.3067 32.7592 24.0188 32.7576 23.734C32.7507 22.3637 32.7522 20.9946 32.7538 19.6257L32.7544 19.0385C32.7544 18.9751 32.7537 18.9117 32.7529 18.8483C32.7506 18.65 32.7483 18.4517 32.7686 18.2562C32.8445 17.5067 33.1082 17.3737 33.7179 17.7977C33.9993 17.9924 34.2651 18.21 34.5308 18.4275C34.6708 18.5421 34.8108 18.6566 34.953 18.7678C35.6417 19.3072 36.3317 19.846 37.0597 20.4144L37.0813 20.4313C37.5101 20.7661 37.9522 21.1113 38.415 21.4731C38.415 21.1433 38.4136 20.8334 38.4123 20.537C38.4094 19.887 38.4067 19.3024 38.4198 18.7177C38.434 18.0778 38.6914 17.5849 39.4116 17.5364C40.1381 17.4879 40.4351 17.9651 40.5488 18.5847C40.5858 18.791 40.5836 19.0045 40.5814 19.2161C40.5809 19.266 40.5804 19.3159 40.5804 19.3655C40.5827 20.1951 40.5825 21.0238 40.5822 21.853L40.582 22.6826C40.9958 21.7923 41.2737 20.877 41.4838 19.946C42.7931 14.1255 39.5901 8.50364 33.909 6.48992C29.8847 5.06295 25.8256 5.0786 21.7381 6.04869C17.0931 7.15177 13.0277 9.37046 9.50718 12.5514C7.93251 13.9737 6.59476 15.6041 5.47022 17.4785C8.9228 16.9012 10.3269 18.5707 10.9397 20.2354C11.5651 21.9362 10.7533 24.0704 9.12023 25.0577ZM6.86228 23.6037C5.71356 23.6021 4.82583 22.6986 4.82422 21.5247C4.82261 20.2914 5.691 19.3978 6.8945 19.3945C8.04001 19.3912 9.06951 20.4135 9.03246 21.5148C8.99379 22.7085 8.06095 23.6054 6.86228 23.6037Z" fill="#EFC99B"/>
</svg>
