<svg width="123" height="25" viewBox="0 0 123 25" fill="none" xmlns="http://www.w3.org/2000/svg">
<path d="M28.8797 5.99805H25.8559C25.2838 5.99805 24.916 6.32495 24.916 6.89703V16.7041C24.916 17.2353 25.2429 17.5622 25.7741 17.5622C26.3053 17.5622 26.6323 17.2353 26.6323 16.7041V13.2308H29.0023C31.2906 13.2308 32.5165 11.3511 32.5165 9.55311C32.5574 7.59169 30.9637 5.99805 28.8797 5.99805ZM30.8003 9.59397C30.8003 10.4112 30.1873 11.5145 29.0432 11.5145H26.6731V7.71428H29.0023C30.1873 7.75515 30.8003 8.69499 30.8003 9.59397Z" fill="#EFC99B"/>
<path d="M40.8111 15.8868H36.3979V6.85616C36.3979 6.32495 36.071 5.99805 35.5398 5.99805C35.0085 5.99805 34.6816 6.32495 34.6816 6.85616V16.4181C34.6816 17.1536 35.0494 17.5622 35.7441 17.5622H40.8519C41.3831 17.5622 41.71 17.2353 41.71 16.7041C41.6692 16.2137 41.3423 15.8868 40.8111 15.8868Z" fill="#EFC99B"/>
<path d="M62.1438 14.948C61.8987 14.948 61.7352 15.0298 61.5309 15.1932C60.9997 15.7244 59.9372 16.1331 58.9974 16.1331C56.6274 16.1331 55.4015 13.9673 55.4015 11.8016C55.4015 9.75846 56.5048 7.59273 58.9565 7.59273C59.7738 7.59273 60.9179 7.87877 61.49 8.45085C61.6535 8.6143 61.9804 8.73689 62.1847 8.73689C62.6751 8.73689 63.0428 8.32826 63.0428 7.83791C63.0428 7.55187 62.9202 7.26583 62.675 7.06152C61.6535 6.12167 60.1007 5.75391 59.0383 5.75391C55.4423 5.75391 53.6035 8.85948 53.6035 11.8833C53.6035 14.7846 55.2789 17.8902 58.9565 17.8902C60.305 17.8902 61.7352 17.3998 62.6342 16.5825C62.8385 16.3782 62.9611 16.1331 62.9611 15.8062C63.002 15.2749 62.6342 14.948 62.1438 14.948Z" fill="#EFC99B"/>
<path d="M71.6632 15.887H66.8823V12.4545H70.8051C71.3363 12.4545 71.6632 12.1276 71.6632 11.6373C71.6632 11.106 71.3363 10.7383 70.8051 10.7383H66.8823V7.7553H71.5406C72.0718 7.7553 72.3987 7.4284 72.3987 6.89718C72.3987 6.36597 72.0718 6.03906 71.5406 6.03906H66.1059C65.5338 6.03906 65.166 6.40683 65.166 7.01977V16.6225C65.166 17.2763 65.3295 17.6032 66.1059 17.6032H71.6632C72.2761 17.6032 72.603 17.2763 72.603 16.7451C72.603 16.4999 72.5213 15.887 71.6632 15.887Z" fill="#EFC99B"/>
<path d="M80.0007 11.3913C79.7555 11.2687 79.5104 11.1461 79.3061 11.0644L78.8566 10.8192C77.835 10.288 76.8952 9.79768 76.8952 9.14387C76.8952 8.24489 77.7124 7.63195 78.4888 7.63195C78.4888 7.63195 78.4888 7.63195 78.5297 7.63195C79.5512 7.63195 80.2868 8.04058 80.7771 8.40834L80.8588 8.4492C81.0632 8.57179 81.2675 8.73524 81.5126 8.73524C81.9621 8.73524 82.3708 8.32661 82.3708 7.83626C82.3708 7.42763 82.0847 7.14159 81.8396 6.89642C81.5944 6.73297 80.3685 5.83398 78.7748 5.83398C76.6091 5.83398 75.0563 7.22332 75.0563 9.2256C75.0563 10.9418 76.7726 11.8408 78.3662 12.6172C78.6114 12.7398 78.8566 12.8624 79.1017 12.985C80.1642 13.4345 80.7771 13.8022 80.818 14.7012C80.8588 15.8862 78.6114 16.8261 76.4865 15.5593C76.2414 15.4367 75.9962 15.3142 75.7919 15.3142C75.2606 15.3142 74.9746 15.6411 74.9746 16.1314C74.9746 16.3766 75.0563 16.7443 75.5467 17.0304C76.3639 17.5616 77.3038 17.8068 78.2845 17.8068C81.104 17.8068 82.6568 16.6626 82.6568 14.5786C82.6159 12.6581 81.2266 11.9634 80.0007 11.3913Z" fill="#EFC99B"/>
<path d="M92.5414 6.08008H85.1861C84.614 6.08008 84.2871 6.40698 84.2871 6.9382C84.2871 7.46941 84.614 7.79631 85.1861 7.79631H87.9648V16.7453C87.9648 17.3173 88.2917 17.6851 88.8637 17.6851C89.395 17.6851 89.7219 17.3173 89.7219 16.7453V7.79631H92.5414C93.0726 7.79631 93.4404 7.46941 93.4404 6.9382C93.4404 6.40698 93.1135 6.08008 92.5414 6.08008Z" fill="#EFC99B"/>
<path d="M102.678 16.4166L99.2051 6.97726C99.0008 6.40518 98.5922 6.11914 98.061 6.11914C97.5298 6.11914 97.1211 6.44604 96.9168 6.97726L93.5661 16.4574C93.5252 16.58 93.4844 16.7026 93.4844 16.8661C93.4844 17.3564 93.8113 17.6833 94.2608 17.6833C94.5059 17.6833 94.9963 17.6016 95.2415 16.9069L96.0996 14.496H100.063L101.126 17.1112C101.248 17.479 101.575 17.6833 101.943 17.6833C102.433 17.6833 102.76 17.3564 102.76 16.8661C102.76 16.7435 102.719 16.58 102.678 16.4166ZM99.4503 12.7798H96.5899L98.0201 8.85695L99.4503 12.7798Z" fill="#EFC99B"/>
<path d="M110.198 12.9042C111.669 12.3321 112.323 10.8202 112.323 9.63514C112.323 7.9189 111.016 6.08008 108.645 6.08008H105.867C105.05 6.08008 104.723 6.48871 104.723 7.38769V16.6635C104.723 17.5625 105.336 17.6442 105.581 17.6442C106.112 17.6442 106.439 17.2765 106.439 16.6635V13.2719H108.4L110.689 17.1948C110.811 17.3991 111.016 17.6851 111.465 17.6851C111.955 17.6851 112.241 17.3582 112.241 16.8679C112.241 16.6635 112.201 16.4184 112.078 16.1732L110.198 12.9042ZM110.566 9.676C110.566 10.4115 110.076 11.5557 108.768 11.5557H106.439V7.79631H108.768C110.076 7.79631 110.566 8.94047 110.566 9.676Z" fill="#EFC99B"/>
<path d="M122.004 6.08008H114.649C114.077 6.08008 113.75 6.40698 113.75 6.9382C113.75 7.46941 114.077 7.79631 114.649 7.79631H117.468V16.7453C117.468 17.3173 117.795 17.6851 118.367 17.6851C118.899 17.6851 119.226 17.3173 119.226 16.7453V7.79631H122.045C122.576 7.79631 122.944 7.46941 122.944 6.9382C122.903 6.40698 122.576 6.08008 122.004 6.08008Z" fill="#EFC99B"/>
<path d="M52.3777 16.3775L48.9044 6.9382C48.7001 6.36612 48.2914 6.08008 47.7602 6.08008C47.229 6.08008 46.8204 6.40698 46.6161 6.9382L43.2653 16.4184C43.2245 16.5409 43.1836 16.6635 43.1836 16.827C43.1836 17.3173 43.5105 17.6442 43.96 17.6442C44.2052 17.6442 44.6955 17.5625 44.9407 16.8679L45.7988 14.4569H49.7625L50.8249 17.0722C50.9475 17.4399 51.2744 17.6442 51.6422 17.6442C52.1326 17.6442 52.4595 17.3173 52.4595 16.827C52.4595 16.7044 52.4595 16.5409 52.3777 16.3775ZM49.1904 12.7407H46.33L47.7602 8.81788L49.1904 12.7407Z" fill="#EFC99B"/>
<path d="M17.2333 3.14099C15.3536 1.22056 12.861 0.158203 10.2458 0.158203H10.164C4.77014 0.158203 0.316101 4.57109 0.234375 10.0055C0.234375 10.2098 0.234375 18.7495 0.234375 22.4269V23.8162C0.234375 24.1022 0.356963 24.3882 0.561277 24.5516C0.765591 24.7151 1.01077 24.8377 1.25594 24.8377C1.54198 24.8377 1.78716 24.7151 1.99147 24.5516L7.05846 19.5667C7.87571 19.7302 9.30591 20.0162 10.1232 20.0162H10.2049C15.5579 20.0162 20.0937 15.4807 20.1345 10.1281C20.1345 7.55387 19.113 5.06141 17.2333 3.14099ZM10.2049 18.5044H10.1232C9.46936 18.5044 8.16175 18.2592 7.14018 18.014C6.81328 17.9323 6.44552 18.0549 6.20034 18.3001L1.7463 22.6312C1.7463 17.4829 1.7463 10.2098 1.7463 10.0463C1.82802 5.42915 5.5874 1.67002 10.164 1.67002H10.2049C12.4523 1.71088 14.5772 2.6098 16.1709 4.20335C17.7645 5.79689 18.6226 7.92161 18.6226 10.1281C18.5409 14.7044 14.6998 18.5044 10.2049 18.5044Z" fill="#EFC99B"/>
<path d="M12.2898 6.24619C12.1264 6.16447 11.9221 6.12361 11.7178 6.16447C11.5135 6.20533 11.35 6.36878 11.2683 6.53223C11.1865 6.69568 11.1457 6.94086 11.1865 7.10431C11.2274 7.30863 11.3909 7.47208 11.5543 7.5538C12.4942 8.04416 13.0662 9.02486 13.0662 10.0873C13.0662 11.6809 11.7586 12.9886 10.165 12.9886C8.57133 12.9886 7.26372 11.6809 7.26372 10.0873C7.26372 9.10659 7.75408 8.16674 8.61219 7.63553C8.97996 7.39035 9.06168 6.94086 8.85737 6.5731C8.73478 6.40964 8.57133 6.28706 8.36702 6.24619C8.1627 6.20533 7.95839 6.24619 7.79494 6.32792C6.48733 7.14517 5.71094 8.53451 5.71094 10.0873C5.71094 12.5391 7.71321 14.5413 10.165 14.5413C12.6167 14.5413 14.619 12.5391 14.619 10.0873C14.619 8.49365 13.72 7.02259 12.2898 6.24619Z" fill="#EFC99B"/>
<path d="M10.083 5.14453C9.67441 5.14453 9.30664 5.47143 9.30664 5.92092V9.18995C9.30664 9.59858 9.63354 9.96634 10.083 9.96634C10.5325 9.96634 10.8594 9.63944 10.8594 9.18995V5.92092C10.8594 5.5123 10.4917 5.14453 10.083 5.14453Z" fill="#EFC99B"/>
</svg>
